<svg xmlns="http://www.w3.org/2000/svg" viewBox="0 0 477.48 479.33"><defs><style>.cls-1{fill:#fff;}</style></defs><g id="Layer_2" data-name="Layer 2"><g id="Layer_1-2" data-name="Layer 1"><path d="M404,439.64c.61-2.88,1.26-5.76,1.82-8.66,1.84-9.64,3.62-19.3,5.46-28.94.79-4.15,2.61-5.67,6.87-5.7,7.28,0,14.56,0,21.84,0,4,0,6.51,1.78,8,5.53q14.3,36,28.74,72c.16.41.35.8.48,1.22.75,2.49-.23,3.95-2.83,4.06-2.1.09-4.21,0-6.32,0q-9.6,0-19.21,0c-4.4,0-6.31-1.45-7.66-5.69q-5.31-16.66-10.63-33.32c-.47-1.48-1.06-2.93-1.79-4.95a13.44,13.44,0,0,0-.91,2.06q-1.84,9.29-3.62,18.58c-1.13,5.94-2.2,11.89-3.34,17.83-.74,3.86-2.64,5.46-6.5,5.48-4.38,0-8.77,0-13.15,0a8.73,8.73,0,0,1-8.17-4.79l-21.41-38a9.89,9.89,0,0,0-.65-.83,6,6,0,0,0-.75,1.61,41.54,41.54,0,0,0-.27,4.46q0,15.53,0,31c0,.71,0,1.41,0,2.11-.2,2.57-1.82,4.36-4.36,4.38-6.83,0-13.67-.06-20.51-.09-1.48,0-3,.13-4.44.14q-13.43,0-26.84,0c-4.78,0-6.33-1.09-8-5.56a6.8,6.8,0,0,0-6.86-4.71q-9-.07-17.89,0c-3.46,0-5.56,1.62-6.69,4.87-.14.41-.21.85-.38,1.25-1.11,2.57-3,4.13-5.85,4.12-9,0-18-.2-27.08-.21-6.83,0-13.67-.11-20.48.32-5.83.37-9.67-1.79-12.33-6.93-2.09-4-4.67-7.83-7.07-11.71-.86-1.4-1.85-2.71-3.05-4.46-1.09,1.41-2,2.43-2.74,3.57-3,4.65-6,9.28-8.83,14a10.22,10.22,0,0,1-9.71,5.47c-9.91-.14-19.82,0-29.73-.07a31.43,31.43,0,0,1-3.61-.42,6,6,0,0,0-1.26-.09c-1.64.16-3.28.5-4.92.51q-10.92.09-21.84,0c-1.81,0-3.63-.33-5.44-.5a2.06,2.06,0,0,0-.77-.05c-3.52,1.16-7.14.48-10.7.54-6.84.12-13.68.05-20.52,0-4,0-5.94-1.4-7.32-5.13s-3.34-5.13-7.31-5.15c-5.79,0-11.58,0-17.36,0-3.63,0-5.68,1.56-6.87,5-1.42,4-3.11,5.29-7.37,5.3q-13.82,0-27.63,0H3.68c-3.45-.08-4.45-1.52-3.11-4.7,2.62-6.22,5.3-12.41,8-18.62,7.7-18,15.46-35.9,23.08-53.9,1.65-3.89,4.3-5.71,8.5-5.68q14.46.09,28.94,0c4.2,0,6.85,1.78,8.54,5.64q14,32.06,28.14,64a6.75,6.75,0,0,0,1.71,2.57c0-.88.12-1.76.12-2.63,0-20.88.07-41.75,0-62.63,0-5.33,1.74-7.12,7-7,7.71.17,15.43,0,23.15.05.79,0,1.58,0,2.37.05,2.86.24,4.43,1.82,4.65,4.71.07.87,0,1.75,0,2.63v70.72c1-.94,1.62-1.41,2.13-2,9.95-10.74,19.81-21.57,29.89-32.2,2.84-3,3-6.73.23-10-8.23-9.68-16.26-19.55-24.34-29.37-.84-1-2.35-2-1.59-3.57.69-1.39,2.33-1,3.59-1,10,0,20,0,30,0a9.25,9.25,0,0,1,8.78,5.13c2,3.61,4.11,7.15,6.2,10.7.56.95,1.26,1.82,2.13,3.08.89-1.36,1.59-2.33,2.18-3.36,2-3.51,4-7,5.88-10.57a8.82,8.82,0,0,1,8.33-5c10.17,0,20.34,0,30.52,0,1.18,0,2.7-.33,3.33,1s-.62,2.41-1.44,3.4q-12.2,14.83-24.41,29.65c-2.58,3.14-2.75,5.46-.66,8.84q6.65,10.74,13.31,21.46c.46.73,1,1.43,1.64,2.48.57-1.18,1-2,1.36-2.87q12.41-28.87,24.8-57.75c.31-.72.6-1.46,1-2.15a7.12,7.12,0,0,1,5.83-3.95c.88-.08,1.75-.11,2.63-.11,9.3,0,18.6,0,27.89,0a13.91,13.91,0,0,1,4.13.54c2.41.79,3.73,2.71,4.73,5q9.15,21,18.41,41.89,4.5,10.23,9,20.46c.38.86.82,1.71,1.39,2.9.29-.55.51-.79.52-1,0-1.32,0-2.63,0-3.95q0-29.34,0-58.68c0-.79,0-1.58,0-2.36.17-2.93,1.67-4.48,4.59-4.73.52-.05,1.05,0,1.57,0,8.6,0,17.2.06,25.79,0a9.2,9.2,0,0,1,9,5.5c5.82,11.4,11.78,22.73,17.71,34.07.71,1.37,1.57,2.65,2.36,4ZM55.1,417.93a13,13,0,0,0-3,5.46c-1.63,4.8-3.19,9.63-4.78,14.45-.69,2.07-1.47,4.12-2,6.24-.72,2.74.44,4.61,3.16,5.4a4.78,4.78,0,0,0,1.29.22c3.41,0,6.83,0,10.24,0a5.78,5.78,0,0,0,2-.47c2.25-.91,3.27-2.74,2.53-5-2.48-7.66-5-15.28-7.65-22.9A24.39,24.39,0,0,0,55.1,417.93Zm235.27.13a9.45,9.45,0,0,0-2.9,4.83q-3.5,10.29-6.82,20.65c-1.09,3.42.63,5.94,4.26,6.13,3.4.18,6.81.06,10.22,0a5.49,5.49,0,0,0,1.78-.37c2.55-.91,3.6-2.75,2.76-5.35-2.42-7.48-4.93-14.93-7.47-22.38A28.22,28.22,0,0,0,290.37,418.06Z"/><path d="M236.36,334.83A167.56,167.56,0,0,1,69.07,165.25C70.16,76.35,141.63-.16,236.9,0a166.66,166.66,0,0,1,167,167.62C403.74,261.12,328.45,334.55,236.36,334.83Zm.3-328C148,6.81,76.08,78,76,166.81c-.1,92.34,74.6,160.93,160,161,89,0,160.44-71.33,160.88-159.36C397.29,76.49,323.13,6.79,236.66,6.82Z"/><path class="cls-1" d="M236.66,6.82c86.47,0,160.63,69.67,160.18,161.58C396.4,256.43,325,327.79,236,327.76c-85.39,0-160.09-68.61-160-160.95C76.08,78,148,6.81,236.66,6.82ZM367.59,223.65c24.12-53,12.5-128.44-47.23-171.93C261,8.53,177.94,17.62,129.53,72.77c-24.45,27.85-36.33,60.55-35.8,97.68.24,16.74,6.81,46.64,11.39,51.55.31-.76.61-1.49.89-2.22,2.76-7.1,5.49-14.22,8.29-21.31C126.36,168,138.62,137.59,152.66,108a566.92,566.92,0,0,1,31.66-58.18,6.12,6.12,0,0,1,3-2.76c19.68-7.69,40-11,61.07-8.69A144.92,144.92,0,0,1,283.77,47a7.85,7.85,0,0,1,4.09,3.42,590.76,590.76,0,0,1,37.92,71.49c14.57,32.38,27.77,65.32,40.48,98.47C366.63,221.33,367,222.28,367.59,223.65ZM277.3,240.34l12.74-7a4.88,4.88,0,0,0-3.47-2.21,25.39,25.39,0,0,0-4.67-.59c-4.83-.07-9.65-.06-14.47,0-13.86.14-27.71.39-41.57.45-10.78,0-21.57-.16-32.36-.21a44.46,44.46,0,0,0-5.76.38c-4.75.57-6.08,1.72-7.11,6.33-1.31,5.81-2.48,11.65-3.71,17.48-.52,2.46-1.06,4.92-1.63,7.56h-50.1l0,.6c1.49.47,3,1,4.48,1.39a11.56,11.56,0,0,1,5.48,3.37,142.89,142.89,0,0,0,203.21-.32,11.47,11.47,0,0,1,5.28-3.2,11.38,11.38,0,0,0,4.22-1.55l-.09-.59H297.27c-1.93-6.75-2.63-13.49-4.78-20.21M245.93,114c-2.52-6.25-5-12.53-7.52-18.79a2.57,2.57,0,0,1,.23-2.67c1.86-2.85,3.64-5.74,5.56-8.78a5.42,5.42,0,0,0-.64-.42,10.08,10.08,0,0,0-1.45-.6,21.39,21.39,0,0,0-12.67.4,8.89,8.89,0,0,0-4.72,4,24,24,0,0,0-2,4c-2.43,6.57-4.92,13.12-7.14,19.77q-6.66,19.94-13,40A36.62,36.62,0,0,0,201,159.1c-.39,4.87,2.43,8.22,7.25,9a25.61,25.61,0,0,0,4.18.4q23.94.17,47.87.24a19,19,0,0,0,3.9-.41c5.5-1.15,8.34-5.26,7.4-10.78a50.12,50.12,0,0,0-1.56-6.91c-3.39-10.42-6.87-20.8-10.36-31.18-.71-2.13-1.57-4.22-2.31-6.2-1.22.55-2.2,1.08-3.24,1.44"/><path d="M367.59,223.65c-.55-1.37-1-2.32-1.33-3.29-12.71-33.15-25.91-66.09-40.48-98.47A590.76,590.76,0,0,0,287.86,50.4,7.85,7.85,0,0,0,283.77,47a144.92,144.92,0,0,0-35.38-8.65c-21.08-2.26-41.39,1-61.07,8.69a6.12,6.12,0,0,0-3,2.76A566.92,566.92,0,0,0,152.66,108c-14,29.63-26.3,60-38.36,90.51-2.8,7.09-5.53,14.21-8.29,21.31-.28.73-.58,1.46-.89,2.22-4.58-4.91-11.15-34.81-11.39-51.55-.53-37.13,11.35-69.83,35.8-97.68C177.94,17.62,261,8.53,320.36,51.72,380.09,95.21,391.71,170.62,367.59,223.65ZM132.7,139c.55-1.08,1-1.9,1.39-2.74,5.64-12.15,11.2-24.34,17-36.43,4.44-9.33,9.16-18.52,13.74-27.79.47-1,1.24-1.88,1-3.24a4.78,4.78,0,0,0-1.36.08c-2.84,1.11-5.73,2.13-8.49,3.44a38.91,38.91,0,0,0-6.81,3.91,57.25,57.25,0,0,0-14.22,15.65,47.15,47.15,0,0,0-6.82,19.69,52.52,52.52,0,0,0-.26,11.5,69,69,0,0,0,2.26,11.55C130.52,136.11,130.87,137.74,132.7,139Z"/><path d="M292.49,242.05c2.15,6.72,2.85,13.46,4.78,20.21h50.45l.09.59a11.38,11.38,0,0,1-4.22,1.55,11.47,11.47,0,0,0-5.28,3.2,142.89,142.89,0,0,1-203.21.32,11.56,11.56,0,0,0-5.48-3.37c-1.51-.37-3-.92-4.48-1.39l0-.6h50.1c.57-2.64,1.11-5.1,1.63-7.56,1.23-5.83,2.4-11.67,3.71-17.48,1-4.61,2.36-5.76,7.11-6.33a44.46,44.46,0,0,1,5.76-.38c10.79.05,21.58.25,32.36.21,13.86-.06,27.71-.31,41.57-.45,4.82,0,9.64-.06,14.47,0a25.39,25.39,0,0,1,4.67.59,4.88,4.88,0,0,1,3.47,2.21"/><path d="M132.7,139c-1.83-1.3-2.18-2.93-2.58-4.38a69,69,0,0,1-2.26-11.55,52.52,52.52,0,0,1,.26-11.5,47.15,47.15,0,0,1,6.82-19.69,57.25,57.25,0,0,1,14.22-15.65A38.91,38.91,0,0,1,156,72.36c2.76-1.31,5.65-2.33,8.49-3.44a4.78,4.78,0,0,1,1.36-.08c.21,1.36-.56,2.28-1,3.24-4.58,9.27-9.3,18.46-13.74,27.79-5.76,12.09-11.32,24.28-17,36.43C133.69,137.14,133.25,138,132.7,139Z"/><path d="M271.6,157.59a50.12,50.12,0,0,0-1.56-6.91c-3.39-10.42-6.87-20.8-10.36-31.18-.71-2.13-1.57-4.22-2.31-6.2-1.22.55-2.2,1.08-3.24,1.44-1.32.45-2.69.75-4,1.15-2.76.82-3.11.71-4.16-1.91-2.52-6.25-5-12.53-7.52-18.79a2.57,2.57,0,0,1,.23-2.67c1.86-2.85,3.64-5.74,5.56-8.78a5.42,5.42,0,0,0-.64-.42,10.08,10.08,0,0,0-1.45-.6,21.39,21.39,0,0,0-12.67.4,8.89,8.89,0,0,0-4.72,4,24,24,0,0,0-2,4c-2.43,6.57-4.92,13.12-7.14,19.77q-6.66,19.94-13,40A36.62,36.62,0,0,0,201,159.1c-.39,4.87,2.43,8.22,7.25,9a25.61,25.61,0,0,0,4.18.4q23.94.17,47.87.24a19,19,0,0,0,3.9-.41C269.7,167.22,272.54,163.11,271.6,157.59Z"/><path d="M201.14,157.59a47.36,47.36,0,0,1,1.56-6.91c3.39-10.42,6.87-20.8,10.35-31.18.72-2.13,1.58-4.22,2.32-6.2,1.21.55,2.2,1.08,3.24,1.44,1.32.45,2.69.75,4,1.15,2.77.82,3.11.71,4.17-1.91,2.52-6.25,5-12.53,7.51-18.79a2.57,2.57,0,0,0-.22-2.67c-1.87-2.85-3.65-5.74-5.57-8.78a6.52,6.52,0,0,1,.65-.42,9.22,9.22,0,0,1,1.45-.6,21.36,21.36,0,0,1,12.66.4,8.86,8.86,0,0,1,4.72,4,23.25,23.25,0,0,1,2,4c2.43,6.57,4.92,13.12,7.14,19.77q6.66,19.94,13,40a37.19,37.19,0,0,1,1.58,8.23c.38,4.87-2.44,8.22-7.26,9a25.5,25.5,0,0,1-4.18.4q-23.93.17-47.86.24a18.92,18.92,0,0,1-3.9-.41C203,167.22,200.2,163.11,201.14,157.59Z"/></g></g></svg>