<svg xmlns="http://www.w3.org/2000/svg" viewBox="0 0 165.17 39.95"><defs><style>.cls-1{fill:#231f20;}</style></defs><g id="Layer_2" data-name="Layer 2"><g id="Layer_1-2" data-name="Layer 1"><path class="cls-1" d="M6.35,39.74a6.43,6.43,0,0,1-1.47.16,4.89,4.89,0,0,1-2-.4,4.48,4.48,0,0,1-1.54-1.07,4.63,4.63,0,0,1-1-1.57A5.3,5.3,0,0,1,0,35a5.52,5.52,0,0,1,.36-2,4.76,4.76,0,0,1,1-1.6A4.59,4.59,0,0,1,3,30.26a5.18,5.18,0,0,1,2-.4,6.07,6.07,0,0,1,2.59.51v2.27A3.8,3.8,0,0,0,6.42,32,3.87,3.87,0,0,0,5,31.77,3,3,0,0,0,3.91,32a2.9,2.9,0,0,0-.92.61,2.74,2.74,0,0,0-.6,1,3.71,3.71,0,0,0-.22,1.33,3.77,3.77,0,0,0,.18,1.17,2.7,2.7,0,0,0,1.47,1.66A3.06,3.06,0,0,0,5.11,38a4,4,0,0,0,1.42-.23,3.87,3.87,0,0,0,1-.59v2.16a5,5,0,0,1-1.22.41"/><path class="cls-1" d="M14.49,38.53a3.37,3.37,0,0,1-1.21,1,3.73,3.73,0,0,1-1.73.35,3.35,3.35,0,0,1-1.17-.2A2.77,2.77,0,0,1,8.7,38.15a3.53,3.53,0,0,1-.26-1.4,3.64,3.64,0,0,1,.22-1.29,3,3,0,0,1,.65-1,2.83,2.83,0,0,1,1-.68,3.31,3.31,0,0,1,1.27-.25,3.56,3.56,0,0,1,1.25.21,2.91,2.91,0,0,1,1,.61,2.76,2.76,0,0,1,.63,1,3.64,3.64,0,0,1,.22,1.33v.22c0,.1,0,.2,0,.32H10.31a1.37,1.37,0,0,0,.42.95,1.41,1.41,0,0,0,1,.37,1.78,1.78,0,0,0,1.49-.79ZM12.71,36a1.08,1.08,0,0,0-.32-.79A1.22,1.22,0,0,0,12,35a1.06,1.06,0,0,0-.48-.1,1.18,1.18,0,0,0-.85.32,1.42,1.42,0,0,0-.38.84Z"/><path class="cls-1" d="M15.91,33.72h1.94v.94a2.37,2.37,0,0,1,.67-.8,1.79,1.79,0,0,1,1.17-.29v2a1.47,1.47,0,0,0-.79-.2.86.86,0,0,0-.75.41,2.59,2.59,0,0,0-.27,1.36v2.6h-2Z"/><polygon class="cls-1" points="21.3 35.17 20.48 35.17 20.48 33.72 21.3 33.72 21.3 31.59 23.26 31.59 23.26 33.72 24.36 33.72 24.36 35.17 23.26 35.17 23.26 39.69 21.3 39.69 21.3 35.17"/><path class="cls-1" d="M26.42,32.64a1.13,1.13,0,0,1-.45-.09,1.21,1.21,0,0,1-.37-.25,1.15,1.15,0,0,1-.25-.37,1,1,0,0,1-.1-.46,1,1,0,0,1,.1-.45,1,1,0,0,1,.25-.37,1.23,1.23,0,0,1,.37-.26,1.13,1.13,0,0,1,.45-.09,1.14,1.14,0,0,1,.46.09,1.37,1.37,0,0,1,.37.26,1.1,1.1,0,0,1,.25.37,1.09,1.09,0,0,1,0,.91,1.17,1.17,0,0,1-.62.62,1.14,1.14,0,0,1-.46.09m-1,1.08h2v6h-2Z"/><path class="cls-1" d="M29.29,35.17h-.81V33.72h.81v-1.5A7.14,7.14,0,0,1,29.37,31a2.11,2.11,0,0,1,.33-.9,1.57,1.57,0,0,1,.7-.59,2.85,2.85,0,0,1,1.18-.2,5.72,5.72,0,0,1,.59,0l.51.07v1.64a3.52,3.52,0,0,0-.56,0,1.73,1.73,0,0,0-.36,0,.68.68,0,0,0-.21.1,1.07,1.07,0,0,0-.14.16.55.55,0,0,0-.1.23,3,3,0,0,0,0,.38c0,.15,0,.35,0,.58v1.2H32.6v1.45H31.25v4.52h-2Z"/><path class="cls-1" d="M34.63,32.64a1.13,1.13,0,0,1-.45-.09,1.1,1.1,0,0,1-.37-.25,1.37,1.37,0,0,1-.26-.37,1.14,1.14,0,0,1-.09-.46,1.17,1.17,0,0,1,1.17-1.17,1.14,1.14,0,0,1,.46.09,1.37,1.37,0,0,1,.37.26,1.1,1.1,0,0,1,.25.37,1.13,1.13,0,0,1,.09.45,1.14,1.14,0,0,1-.09.46,1.17,1.17,0,0,1-.62.62,1.14,1.14,0,0,1-.46.09m-1,1.08h2v6h-2Z"/><path class="cls-1" d="M42.81,38.53a3.37,3.37,0,0,1-1.21,1,3.73,3.73,0,0,1-1.73.35,3.35,3.35,0,0,1-1.17-.2,2.73,2.73,0,0,1-1-.58,2.8,2.8,0,0,1-.69-1,3.53,3.53,0,0,1-.26-1.4A3.64,3.64,0,0,1,37,35.46a3.09,3.09,0,0,1,.64-1,3,3,0,0,1,1-.68,3.31,3.31,0,0,1,1.27-.25,3.56,3.56,0,0,1,1.25.21,2.91,2.91,0,0,1,1,.61,2.74,2.74,0,0,1,.62,1A3.63,3.63,0,0,1,43,36.63v.22c0,.1,0,.2,0,.32H38.63a1.33,1.33,0,0,0,.42.95,1.41,1.41,0,0,0,1,.37,1.78,1.78,0,0,0,1.49-.79ZM41,36a1.07,1.07,0,0,0-.09-.43,1.05,1.05,0,0,0-.23-.36,1.22,1.22,0,0,0-.36-.27,1.06,1.06,0,0,0-.48-.1,1.18,1.18,0,0,0-.85.32,1.37,1.37,0,0,0-.38.84Z"/><path class="cls-1" d="M48.5,38.93a3.74,3.74,0,0,1-.84.64,2.73,2.73,0,0,1-3.26-.65,2.8,2.8,0,0,1-.53-1,4,4,0,0,1-.18-1.22,3.45,3.45,0,0,1,.2-1.21,2.93,2.93,0,0,1,.59-1,2.8,2.8,0,0,1,.94-.68,3.13,3.13,0,0,1,1.25-.24,2.91,2.91,0,0,1,1,.18,2.09,2.09,0,0,1,.79.5V29.49h2v10.2h-2Zm-1.41-.68a1.32,1.32,0,0,0,.6-.13,1.44,1.44,0,0,0,.46-.35,1.65,1.65,0,0,0,.4-1.12,1.59,1.59,0,0,0-.12-.62,1.4,1.4,0,0,0-.32-.46,1.46,1.46,0,0,0-.44-.29,1.34,1.34,0,0,0-.52-.1,1.41,1.41,0,0,0-.59.12,1.48,1.48,0,0,0-.44.34,1.68,1.68,0,0,0-.29.5,1.72,1.72,0,0,0-.1.6,1.59,1.59,0,0,0,.12.64,1.33,1.33,0,0,0,.31.48,1.17,1.17,0,0,0,.44.29,1.19,1.19,0,0,0,.49.1"/><path class="cls-1" d="M56,30h2.77a8.4,8.4,0,0,1,1.78.17,2.6,2.6,0,0,1,1.28.7,2.49,2.49,0,0,1,.58.92,3.51,3.51,0,0,1,0,2.39,2.37,2.37,0,0,1-.6.94,2.81,2.81,0,0,1-1.22.72,5.61,5.61,0,0,1-1.64.22h-.86v3.6H56ZM59,34.32A1.68,1.68,0,0,0,60.17,34a1.09,1.09,0,0,0,.25-.4,1.36,1.36,0,0,0,.09-.48,1.7,1.7,0,0,0-.08-.51,1.12,1.12,0,0,0-.24-.38,1,1,0,0,0-.44-.26,2.41,2.41,0,0,0-.73-.09h-.91v2.49Z"/><path class="cls-1" d="M63.21,33.72h1.94v.94a2.37,2.37,0,0,1,.67-.8A1.79,1.79,0,0,1,67,33.57v2a1.47,1.47,0,0,0-.79-.2.87.87,0,0,0-.76.41,2.59,2.59,0,0,0-.27,1.36v2.6h-2Z"/><path class="cls-1" d="M73.64,38.53a3.37,3.37,0,0,1-1.21,1,3.76,3.76,0,0,1-1.73.35,3.35,3.35,0,0,1-1.17-.2,2.86,2.86,0,0,1-1-.58,2.91,2.91,0,0,1-.68-1,3.37,3.37,0,0,1-.26-1.4,3.64,3.64,0,0,1,.22-1.29,3.09,3.09,0,0,1,.64-1,3,3,0,0,1,1-.68,3.27,3.27,0,0,1,1.27-.25,3.6,3.6,0,0,1,1.25.21,3,3,0,0,1,1,.61,2.88,2.88,0,0,1,.62,1,3.63,3.63,0,0,1,.23,1.33v.22c0,.1,0,.2,0,.32h-4.3a1.29,1.29,0,0,0,.42.95,1.41,1.41,0,0,0,1,.37,1.78,1.78,0,0,0,1.49-.79ZM71.85,36a1.13,1.13,0,0,0-.31-.79,1.22,1.22,0,0,0-.36-.27,1.06,1.06,0,0,0-.48-.1,1.18,1.18,0,0,0-.85.32,1.31,1.31,0,0,0-.38.84Z"/><rect class="cls-1" x="74.83" y="35.44" width="4.04" height="1.61"/><path class="cls-1" d="M85,40a5.12,5.12,0,0,1-3.64-1.47,4.73,4.73,0,0,1-1.09-1.61,5.07,5.07,0,0,1,0-4,5.29,5.29,0,0,1,1.1-1.61A5.36,5.36,0,0,1,83,30.2a5,5,0,0,1,2-.4,5.17,5.17,0,0,1,2,.39,5.06,5.06,0,0,1,2.74,2.69,5.17,5.17,0,0,1,.4,2,4.83,4.83,0,0,1-.41,2,5.15,5.15,0,0,1-1.11,1.61,5.4,5.4,0,0,1-1.64,1.09,4.9,4.9,0,0,1-2,.4m0-2a3,3,0,0,0,2.15-.9,3,3,0,0,0,.63-1,3.19,3.19,0,0,0-.63-3.39,3,3,0,0,0-2.15-.9,3,3,0,0,0-1.2.24,2.9,2.9,0,0,0-1,.66,3.29,3.29,0,0,0-.63,3.39,3.16,3.16,0,0,0,.63,1,2.9,2.9,0,0,0,1,.66A3,3,0,0,0,85,38"/><path class="cls-1" d="M90.58,33.72h2l1.13,2.88a2.82,2.82,0,0,1,.19.51c0,.18.1.36.16.54,0-.18.09-.36.14-.54l.14-.48,1-2.91h2l1,2.72c.07.2.13.4.19.59l.15.59A12.28,12.28,0,0,1,99,36.44l1.07-2.72h2l-2.66,6H97.57l-1-2.93c0-.13-.09-.27-.13-.41a3.65,3.65,0,0,1-.11-.49c0,.18-.08.34-.12.49a3.68,3.68,0,0,1-.13.43l-1,2.91H93.15Z"/><path class="cls-1" d="M102.93,33.72h2v.79a2.38,2.38,0,0,1,.27-.31,1.82,1.82,0,0,1,.4-.3,2.25,2.25,0,0,1,.54-.23,3,3,0,0,1,.71-.08,2.21,2.21,0,0,1,1,.17,2.09,2.09,0,0,1,.61.41,1.61,1.61,0,0,1,.41.69,3.82,3.82,0,0,1,.12,1.06v3.77h-2v-3.3a3,3,0,0,0,0-.41,1.42,1.42,0,0,0-.14-.38.78.78,0,0,0-.71-.38,1.16,1.16,0,0,0-.34.06,1,1,0,0,0-.38.19,1.11,1.11,0,0,0-.31.41,1.47,1.47,0,0,0-.13.68v3.13h-2Z"/><path class="cls-1" d="M116.11,38.53a3.37,3.37,0,0,1-1.21,1,3.73,3.73,0,0,1-1.73.35,3.35,3.35,0,0,1-1.17-.2,2.73,2.73,0,0,1-1-.58,2.8,2.8,0,0,1-.69-1,3.53,3.53,0,0,1-.26-1.4,3.64,3.64,0,0,1,.22-1.29,3.09,3.09,0,0,1,.64-1,3,3,0,0,1,1-.68,3.31,3.31,0,0,1,1.27-.25,3.56,3.56,0,0,1,1.25.21,2.91,2.91,0,0,1,1,.61,2.74,2.74,0,0,1,.62,1,3.63,3.63,0,0,1,.23,1.33v.22c0,.1,0,.2,0,.32h-4.31a1.37,1.37,0,0,0,.42.95,1.41,1.41,0,0,0,1,.37,1.78,1.78,0,0,0,1.49-.79ZM114.33,36a1.08,1.08,0,0,0-.32-.79,1.22,1.22,0,0,0-.36-.27,1.06,1.06,0,0,0-.48-.1,1.18,1.18,0,0,0-.85.32,1.37,1.37,0,0,0-.38.84Z"/><path class="cls-1" d="M121.94,38.93a3.58,3.58,0,0,1-.85.64,2.54,2.54,0,0,1-1.22.26,2.63,2.63,0,0,1-2-.91,2.8,2.8,0,0,1-.53-1,3.71,3.71,0,0,1-.19-1.22,3.46,3.46,0,0,1,.21-1.21,2.93,2.93,0,0,1,.59-1,2.71,2.71,0,0,1,.94-.68,3.08,3.08,0,0,1,1.24-.24,2.87,2.87,0,0,1,1,.18,2.13,2.13,0,0,1,.8.5V29.49h2v10.2h-2Zm-1.41-.68a1.32,1.32,0,0,0,.6-.13,1.3,1.3,0,0,0,.45-.35,1.44,1.44,0,0,0,.3-.51,1.83,1.83,0,0,0,.11-.61,1.59,1.59,0,0,0-.12-.62,1.4,1.4,0,0,0-.32-.46,1.6,1.6,0,0,0-.44-.29,1.34,1.34,0,0,0-.52-.1,1.38,1.38,0,0,0-.59.12,1.41,1.41,0,0,0-.45.34,1.89,1.89,0,0,0-.28.5,1.72,1.72,0,0,0-.1.6,1.79,1.79,0,0,0,.11.64,1.47,1.47,0,0,0,.31.48,1.35,1.35,0,0,0,.94.39"/><path class="cls-1" d="M162.81,20.9a2.36,2.36,0,1,1,1.67-.69,2.3,2.3,0,0,1-1.67.69"/><path class="cls-1" d="M152,20.82a7.1,7.1,0,0,1-2.59-.47A6.4,6.4,0,0,1,147.27,19a6.17,6.17,0,0,1-1.41-2,6.56,6.56,0,0,1-.5-2.58,6.25,6.25,0,0,1,.49-2.49,6.13,6.13,0,0,1,1.37-2,6.7,6.7,0,0,1,2.14-1.36,7.52,7.52,0,0,1,2.78-.5,7.37,7.37,0,0,1,2.7.48A6.43,6.43,0,0,1,157,9.84a6.17,6.17,0,0,1,1.41,2,6.31,6.31,0,0,1,.5,2.55,6.23,6.23,0,0,1-1.81,4.41,6.7,6.7,0,0,1-2.19,1.45,7.69,7.69,0,0,1-3,.54m.2-3.37a2.64,2.64,0,0,0,1.17-.25,2.76,2.76,0,0,0,.89-.66,2.93,2.93,0,0,0,.58-1,3.21,3.21,0,0,0,.21-1.15,3,3,0,0,0-.83-2.15,2.73,2.73,0,0,0-2-.86,2.79,2.79,0,0,0-1.17.25,2.62,2.62,0,0,0-.9.67,3.31,3.31,0,0,0-.77,2.15,2.91,2.91,0,0,0,.24,1.19,3.69,3.69,0,0,0,.64.95,2.73,2.73,0,0,0,.91.62,2.82,2.82,0,0,0,1.08.22"/><polygon class="cls-1" points="138.28 11.35 136.65 11.35 136.65 8.46 138.28 8.46 138.28 4.22 142.2 4.22 142.2 8.46 144.41 8.46 144.41 11.35 142.2 11.35 142.2 20.39 138.28 20.39 138.28 11.35"/><path class="cls-1" d="M122.47,8.46h3.92v6.13a7.13,7.13,0,0,0,.09,1.17,2.91,2.91,0,0,0,.34.94,1.65,1.65,0,0,0,.66.62,2.18,2.18,0,0,0,1.09.23,2.09,2.09,0,0,0,1.07-.24,1.64,1.64,0,0,0,.63-.65,3.3,3.3,0,0,0,.29-.92,7,7,0,0,0,.08-1V8.46h3.92V14.7a12.29,12.29,0,0,1-.25,2.61,3.7,3.7,0,0,1-1.09,1.91,4.85,4.85,0,0,1-2.12,1.23,9,9,0,0,1-2.59.37,8.12,8.12,0,0,1-2.64-.42A5.58,5.58,0,0,1,123.7,19a3.65,3.65,0,0,1-.94-1.67,10.07,10.07,0,0,1-.29-2.65Z"/><path class="cls-1" d="M109.08,1.09h4.47l7.94,19.3h-4.65l-1.44-3.9h-8L106,20.39h-4.49Zm5,11.76-1.63-4.39c-.18-.49-.37-1-.56-1.6s-.37-1.16-.53-1.74c-.16.6-.33,1.18-.52,1.75s-.36,1.11-.54,1.62l-1.58,4.36Z"/><polygon class="cls-1" points="95.2 11.35 93.57 11.35 93.57 8.46 95.2 8.46 95.2 4.22 99.12 4.22 99.12 8.46 101.32 8.46 101.32 11.35 99.12 11.35 99.12 20.39 95.2 20.39 95.2 11.35"/><polygon class="cls-1" points="87.55 0 89.41 0 91.47 0 91.47 20.39 87.55 20.39 87.55 0"/><path class="cls-1" d="M85,18.07a6.86,6.86,0,0,1-2.42,2.06,7.68,7.68,0,0,1-3.45.69,7.08,7.08,0,0,1-2.33-.39,6,6,0,0,1-2-1.17,5.61,5.61,0,0,1-1.37-2,6.84,6.84,0,0,1-.52-2.79,7.21,7.21,0,0,1,.45-2.58,6.18,6.18,0,0,1,1.28-2,5.94,5.94,0,0,1,2-1.36A6.31,6.31,0,0,1,79.14,8a7.07,7.07,0,0,1,2.49.42,5.5,5.5,0,0,1,1.94,1.21,5.59,5.59,0,0,1,1.25,1.95,7.25,7.25,0,0,1,.45,2.65v.45c0,.19,0,.4,0,.64h-8.6a2.72,2.72,0,0,0,.84,1.89,2.85,2.85,0,0,0,2,.75,3.56,3.56,0,0,0,3-1.58Zm-3.56-5a2.2,2.2,0,0,0-.16-.84,2.34,2.34,0,0,0-.47-.73,2.24,2.24,0,0,0-.72-.53,2.12,2.12,0,0,0-1-.21,2.32,2.32,0,0,0-1.69.65,2.65,2.65,0,0,0-.76,1.66Z"/><path class="cls-1" d="M47.52,1.09h4.35l2.7,10.53c.16.66.31,1.35.45,2.08s.25,1.48.34,2.22c.11-.76.23-1.52.36-2.27s.28-1.47.43-2.14L58.43,1.09h4.66l2.36,10.59c.15.58.29,1.23.44,2s.27,1.51.38,2.33c.13-.78.26-1.55.39-2.3s.28-1.4.42-1.95L69.73,1.09H74l-5.63,19.3H63.82L61.43,9.74c-.11-.5-.24-1.11-.37-1.82s-.28-1.5-.42-2.37c-.13.87-.25,1.64-.36,2.32s-.23,1.29-.35,1.87L57.62,20.39H53.15Z"/><path class="cls-1" d="M36.93,16.63a2.29,2.29,0,0,0,.67,1,1.59,1.59,0,0,0,1,.38,1.52,1.52,0,0,0,.89-.22.67.67,0,0,0,.33-.6.78.78,0,0,0-.44-.69A6,6,0,0,0,38.36,16L37,15.5a6.18,6.18,0,0,1-1.39-.68,3.71,3.71,0,0,1-1.07-1.09,3,3,0,0,1-.44-1.7,3.67,3.67,0,0,1,.33-1.54,3.72,3.72,0,0,1,.94-1.26,4.4,4.4,0,0,1,1.5-.86,6,6,0,0,1,2-.31,5.67,5.67,0,0,1,2.85.65,4.07,4.07,0,0,1,1.75,2.15l-3.1,1.2a2,2,0,0,0-.75-1,1.74,1.74,0,0,0-.91-.27A1.28,1.28,0,0,0,38,11a.71.71,0,0,0-.32.63.86.86,0,0,0,.43.75,5,5,0,0,0,1.08.51c.42.16.89.32,1.4.49a6.08,6.08,0,0,1,1.4.69,3.67,3.67,0,0,1,1.07,1.08,3.07,3.07,0,0,1,.44,1.7,3.46,3.46,0,0,1-.38,1.62,3.54,3.54,0,0,1-1,1.23,4.73,4.73,0,0,1-1.56.76,7.2,7.2,0,0,1-2,.26,6.33,6.33,0,0,1-3.19-.68,4,4,0,0,1-1.68-2.15Z"/><path class="cls-1" d="M27.7,19.16A6,6,0,0,1,26,20.35a5.8,5.8,0,0,1-2.37.44,5.65,5.65,0,0,1-2.34-.46,5,5,0,0,1-1.75-1.28,5.54,5.54,0,0,1-1.11-2,8.43,8.43,0,0,1,0-5.1,6.14,6.14,0,0,1,1.17-2.06,5.34,5.34,0,0,1,1.87-1.36A6.15,6.15,0,0,1,24,8.08a4.83,4.83,0,0,1,2.24.51A3.65,3.65,0,0,1,27.7,9.85V8.46h3.84V20.39H27.7ZM25,17.75a2.84,2.84,0,0,0,1.22-.26,2.58,2.58,0,0,0,.9-.69,3,3,0,0,0,.57-1,3.56,3.56,0,0,0,.19-1.18,3.27,3.27,0,0,0-.22-1.22,3.46,3.46,0,0,0-.6-1,2.77,2.77,0,0,0-.95-.69,2.86,2.86,0,0,0-1.25-.26,2.76,2.76,0,0,0-2.05.82A3,3,0,0,0,22,14.49a3.73,3.73,0,0,0,.21,1.25,3.13,3.13,0,0,0,.59,1,2.71,2.71,0,0,0,.93.71,3,3,0,0,0,1.27.26"/><path class="cls-1" d="M.82,1.09H6.28a13.87,13.87,0,0,1,4.33.62,7.86,7.86,0,0,1,3.13,1.88,9.7,9.7,0,0,1,2.1,3,9.64,9.64,0,0,1,.7,3.84,10,10,0,0,1-.8,4.22,10.28,10.28,0,0,1-2.08,3,8.32,8.32,0,0,1-3.39,2.08A13.81,13.81,0,0,1,6,20.39H.82ZM6.12,17a7.64,7.64,0,0,0,2.42-.34,4.8,4.8,0,0,0,1.83-1.11,6.31,6.31,0,0,0,1.22-1.86,7.3,7.3,0,0,0,.55-3.07,7.55,7.55,0,0,0-.45-2.69A5.37,5.37,0,0,0,10.5,6,4.54,4.54,0,0,0,8.38,4.76a9.91,9.91,0,0,0-2.48-.3H5V17Z"/></g></g></svg>