<svg xmlns="http://www.w3.org/2000/svg" viewBox="0 0 138.68 47.56"><defs><style>.cls-1{fill:#231f20;}</style></defs><g id="Layer_2" data-name="Layer 2"><g id="Layer_1-2" data-name="Layer 1"><path class="cls-1" d="M41.07,11.69,21,.06a.66.66,0,0,0-.55,0L.28,11.69a.55.55,0,0,0-.28.48V35.4a.58.58,0,0,0,.28.48L20.4,47.49a.54.54,0,0,0,.55,0L41.07,35.88a.58.58,0,0,0,.28-.48V12.17A.55.55,0,0,0,41.07,11.69ZM37.3,33.3c-.17.32-.55.72-8.17,5.12-6.54,3.78-7.87,4.45-8.45,4.45s-1.94-.67-8.47-4.45c-7.62-4.4-8-4.8-8.16-5.12s-.31-.93-.31-9.52.14-9.24.31-9.53.54-.72,8.16-5.12c6.53-3.78,7.87-4.43,8.47-4.43s1.91.64,8.46,4.43c7.62,4.38,8,4.8,8.16,5.12s.31.94.31,9.53S37.47,33,37.3,33.3Z"/><path class="cls-1" d="M31.21,18.25l-7.56-4.32a15.4,15.4,0,0,1-2.82-2.12.25.25,0,0,0-.15-.09.24.24,0,0,0-.16.09,15.4,15.4,0,0,1-2.82,2.12l-7.56,4.32a6.51,6.51,0,0,0-3.38,5.51A6.33,6.33,0,0,0,13,30a6.76,6.76,0,0,0,3.43-1l2.19-1.26V33.5c0,.63.42.87,1.09,1.29a2.7,2.7,0,0,0,1,.44,2.74,2.74,0,0,0,1-.44c.67-.42,1.09-.66,1.09-1.29V27.75L25,29a6.77,6.77,0,0,0,3.44,1,6.33,6.33,0,0,0,6.18-6.26A6.51,6.51,0,0,0,31.21,18.25ZM18.54,23.33l-4.23,2.42a3.06,3.06,0,0,1-1.46.46,2.37,2.37,0,0,1-2.34-2.42,2.4,2.4,0,0,1,1.35-2.13l6.68-3.83Zm10,2.88A3.09,3.09,0,0,1,27,25.75l-4.23-2.42v-5.5l6.68,3.83a2.4,2.4,0,0,1,1.35,2.13A2.37,2.37,0,0,1,28.5,26.21Z"/><path class="cls-1" d="M76.64,12.11l-5.17,12h2.74l1.07-2.6h6.54l1.07,2.6h2.72L80.44,12.11Zm-.5,7.2,2-4.91h.76l2,4.91Z"/><path class="cls-1" d="M58.32,12.11h-6l1.1,2.26v9.69h2.48V20H58.3c4.44,0,6.3-1.45,6.3-4S62.74,12.11,58.32,12.11Zm0,5.63H55.94V14.37h2.38c2.51,0,3.58.34,3.58,1.65S60.76,17.74,58.3,17.74Z"/><rect class="cls-1" x="66.84" y="12.11" width="2.55" height="11.95"/><rect class="cls-1" x="116.31" y="12.11" width="2.58" height="11.95"/><path class="cls-1" d="M128.24,11.89c-5,0-6.9,1.58-6.9,6.18s1.89,6.3,6.9,6.3,6.84-1.63,6.84-6.3S133.22,11.89,128.24,11.89Zm0,10.19c-3.13,0-4.2-.53-4.2-4s1.07-3.91,4.2-3.91,4.17.5,4.17,3.91S131.38,22.08,128.24,22.08Z"/><path class="cls-1" d="M108.6,19.74h2.58v1.81a9.9,9.9,0,0,1-3.2.53c-2.83,0-4.31-1.24-4.31-3.89s1.62-4.06,4.79-4.06a23.22,23.22,0,0,1,3.75.31l.55-2.29a29.4,29.4,0,0,0-4-.28c-4.84,0-7.72,1.67-7.72,6.37,0,4,2.45,6.1,7,6.1A14.51,14.51,0,0,0,113.71,23V17.57H108.6Z"/><path class="cls-1" d="M93.74,19.74h2.58v1.81a9.9,9.9,0,0,1-3.2.53c-2.83,0-4.31-1.24-4.31-3.89s1.62-4.06,4.79-4.06a23.22,23.22,0,0,1,3.75.31l.55-2.29a29.4,29.4,0,0,0-4-.28c-4.84,0-7.72,1.67-7.72,6.37,0,4,2.45,6.1,7,6.1A14.51,14.51,0,0,0,98.85,23V17.57H93.74Z"/><path class="cls-1" d="M137.43,12.12a1.25,1.25,0,1,1-1.26,1.24A1.24,1.24,0,0,1,137.43,12.12Zm0,2.31a1.06,1.06,0,1,0-1-1.07A1,1,0,0,0,137.43,14.43Zm-.49-1.79h.56c.35,0,.51.14.51.42a.36.36,0,0,1-.38.39l.42.65h-.25l-.39-.63h-.24v.63h-.23Zm.23.65h.23c.2,0,.39,0,.39-.24s-.17-.23-.32-.23h-.3Z"/><path class="cls-1" d="M57.39,35.83c-2.4,0-4-1.62-4-4.17a3.87,3.87,0,0,1,3.92-4.21,4.25,4.25,0,0,1,2.28.56l-.26,1.65A3.11,3.11,0,0,0,57.52,29c-1.32,0-2.17.94-2.17,2.62s.9,2.63,2.2,2.63a3.65,3.65,0,0,0,2-.63l.23,1.54A4.52,4.52,0,0,1,57.39,35.83Z"/><path class="cls-1" d="M64.83,35.83A3.88,3.88,0,0,1,61,31.64a3.88,3.88,0,1,1,7.74,0A3.9,3.9,0,0,1,64.83,35.83Zm0-6.86c-1.27,0-2,1.15-2,2.66s.75,2.69,2,2.69,2-1.17,2-2.68S66.07,29,64.83,29Z"/><path class="cls-1" d="M90.47,35.67l-.41-6.21-1.94,6.23H86.29l-1.94-6.23L84,35.67H82.32l.58-8.07h2.58l1.83,5.85,1.84-5.85h2.56l.58,8.07Z"/><path class="cls-1" d="M94.39,35.67V27.6h5.26v1.5H96.22v1.68h2.66l.22,1.48H96.22v1.92h3.51v1.49Z"/><path class="cls-1" d="M106.16,35.78l-2-2.91h-.75v2.8h-1.84V27.6h2.81c2,0,3.18,1,3.18,2.58A2.36,2.36,0,0,1,106,32.46l2.06,3Zm-1.87-6.71h-.88v2.4h.87c1,0,1.48-.42,1.48-1.24S105.22,29.07,104.29,29.07Z"/><path class="cls-1" d="M113,35.83c-2.41,0-4-1.62-4-4.17A3.87,3.87,0,0,1,113,27.45a4.22,4.22,0,0,1,2.28.56L115,29.66a3.11,3.11,0,0,0-1.86-.64c-1.32,0-2.17.94-2.17,2.62s.9,2.63,2.2,2.63a3.63,3.63,0,0,0,2-.63l.24,1.54A4.55,4.55,0,0,1,113,35.83Z"/><path class="cls-1" d="M117.22,35.67V27.6h1.86v8.07Z"/><path class="cls-1" d="M122.38,35.67h-1.79l3-8.15h2.25l2.89,7.91-1.82.37-.65-1.94H123Zm2.25-6.59h0l-1.1,3.3h2.25Z"/><path class="cls-1" d="M130.17,35.67V27.6h1.88v6.48h2.82l.25,1.59Z"/><path class="cls-1" d="M78.53,35.67l-.41-6.21-1.93,6.23H74.35l-1.94-6.23L72,35.67H70.39L71,27.6h2.58l1.82,5.85,1.84-5.85h2.56l.58,8.07Z"/><path class="cls-1" d="M76.64,12.2l-5.17,12h2.74l1.07-2.6h6.54l1.07,2.6h2.72L80.43,12.2Zm-.5,7.2,2-4.92h.76l2,4.92Z"/><path class="cls-1" d="M58.32,12.2h-6l1.1,2.26v9.69h2.48v-4H58.3c4.44,0,6.3-1.45,6.3-4.05S62.74,12.2,58.32,12.2Zm0,5.62H55.94V14.46h2.38c2.51,0,3.58.34,3.58,1.65S60.76,17.82,58.3,17.82Z"/><rect class="cls-1" x="66.84" y="12.2" width="2.55" height="11.95"/><rect class="cls-1" x="116.31" y="12.2" width="2.58" height="11.95"/><path class="cls-1" d="M128.24,12c-5,0-6.9,1.57-6.9,6.18s1.89,6.3,6.9,6.3,6.84-1.63,6.84-6.3S133.22,12,128.24,12Zm0,10.19c-3.13,0-4.2-.53-4.2-4s1.07-3.91,4.2-3.91,4.17.5,4.17,3.91S131.38,22.17,128.24,22.17Z"/><path class="cls-1" d="M108.6,19.83h2.58v1.81a9.9,9.9,0,0,1-3.2.53c-2.83,0-4.31-1.24-4.31-3.89s1.62-4.06,4.79-4.06a23.22,23.22,0,0,1,3.75.31l.55-2.29a29.4,29.4,0,0,0-4-.28c-4.84,0-7.72,1.67-7.72,6.37,0,4,2.45,6.1,7,6.1a14.51,14.51,0,0,0,5.73-1.36V17.66H108.6Z"/><path class="cls-1" d="M93.74,19.83h2.58v1.81a9.9,9.9,0,0,1-3.2.53c-2.83,0-4.31-1.24-4.31-3.89s1.62-4.06,4.79-4.06a23.22,23.22,0,0,1,3.75.31l.54-2.29a29.17,29.17,0,0,0-4-.28c-4.84,0-7.72,1.67-7.72,6.37,0,4,2.45,6.1,7,6.1a14.51,14.51,0,0,0,5.73-1.36V17.66H93.74Z"/><path class="cls-1" d="M137.43,12.21a1.25,1.25,0,1,1-1.26,1.24A1.24,1.24,0,0,1,137.43,12.21Zm0,2.31a1.06,1.06,0,1,0-1-1.07A1,1,0,0,0,137.43,14.52Zm-.49-1.79h.56c.35,0,.51.14.51.42a.36.36,0,0,1-.38.39l.42.65h-.25l-.39-.63h-.24v.63h-.23Zm.23.65h.23c.2,0,.39,0,.39-.24s-.17-.23-.32-.23h-.3Z"/><path class="cls-1" d="M57.39,35.92c-2.4,0-4-1.62-4-4.17a3.87,3.87,0,0,1,3.92-4.21,4.25,4.25,0,0,1,2.28.56l-.26,1.65a3.11,3.11,0,0,0-1.85-.64c-1.32,0-2.17.94-2.17,2.62s.9,2.63,2.2,2.63a3.65,3.65,0,0,0,2-.63l.23,1.54A4.62,4.62,0,0,1,57.39,35.92Z"/><path class="cls-1" d="M64.83,35.92A3.88,3.88,0,0,1,61,31.73a3.88,3.88,0,1,1,7.74,0A3.9,3.9,0,0,1,64.83,35.92Zm0-6.86c-1.27,0-2,1.15-2,2.66s.75,2.69,2,2.69,2-1.17,2-2.68S66.07,29.06,64.83,29.06Z"/><path class="cls-1" d="M90.47,35.76l-.41-6.21-1.94,6.22H86.29l-1.94-6.22L84,35.76H82.32l.58-8.07h2.58l1.83,5.85,1.84-5.85h2.56l.58,8.07Z"/><path class="cls-1" d="M94.39,35.76V27.69h5.26v1.5H96.22v1.68h2.66l.22,1.48H96.22v1.92h3.51v1.49Z"/><path class="cls-1" d="M106.16,35.87l-2-2.91h-.75v2.8h-1.84V27.69h2.81c2,0,3.18,1,3.18,2.58A2.36,2.36,0,0,1,106,32.55l2.06,3Zm-1.87-6.71h-.88v2.4h.87c1,0,1.48-.42,1.48-1.24S105.22,29.16,104.29,29.16Z"/><path class="cls-1" d="M113,35.92c-2.41,0-4-1.62-4-4.17A3.87,3.87,0,0,1,113,27.54a4.22,4.22,0,0,1,2.28.56L115,29.75a3,3,0,0,0-1.86-.64c-1.32,0-2.17.94-2.17,2.62s.9,2.63,2.2,2.63a3.63,3.63,0,0,0,2-.63l.24,1.54A4.65,4.65,0,0,1,113,35.92Z"/><path class="cls-1" d="M117.22,35.76V27.69h1.86v8.07Z"/><path class="cls-1" d="M122.38,35.76h-1.79l3-8.15h2.25l2.89,7.91-1.82.37L126.23,34H123Zm2.25-6.59h0l-1.1,3.3h2.25Z"/><path class="cls-1" d="M130.17,35.76V27.69h1.88v6.48h2.82l.25,1.59Z"/><path class="cls-1" d="M78.53,35.76l-.41-6.21-1.93,6.22H74.35l-1.94-6.22L72,35.76H70.39L71,27.69h2.58l1.82,5.85,1.84-5.85h2.56l.58,8.07Z"/></g></g></svg>