<svg xmlns="http://www.w3.org/2000/svg" viewBox="0 0 88.61 93.33"><defs><style>.cls-1{fill:#231f20;fill-rule:evenodd;}</style></defs><g id="Layer_2" data-name="Layer 2"><g id="Layer_1-2" data-name="Layer 1"><g id="seat_se4rvice" data-name="seat se4rvice"><path class="cls-1" d="M25,89.82a3.37,3.37,0,0,1-.3,1.44,3,3,0,0,1-.88,1.11,4,4,0,0,1-1.35.71,5.71,5.71,0,0,1-1.76.25,7.28,7.28,0,0,1-1.22-.11,7.08,7.08,0,0,1-1.2-.32,6.4,6.4,0,0,1-1.13-.51l.78-1.64c.38.2.71.36,1,.47a5.92,5.92,0,0,0,.9.27,4.53,4.53,0,0,0,1,.1c1.21,0,1.82-.47,1.82-1.42a1.13,1.13,0,0,0-.33-.83,2.17,2.17,0,0,0-1-.52l-1.15-.31a5.08,5.08,0,0,1-.91-.34,2.9,2.9,0,0,1-.69-.43,2.36,2.36,0,0,1-.46-.55,2.83,2.83,0,0,1-.43-1.48A3,3,0,0,1,18.1,84a3.08,3.08,0,0,1,1.32-1.14,4.41,4.41,0,0,1,1.93-.41,6.69,6.69,0,0,1,1.25.12,6.06,6.06,0,0,1,1.19.36,5.36,5.36,0,0,1,1,.57l-1,1.5a5.77,5.77,0,0,0-1.26-.61,3.66,3.66,0,0,0-1.16-.19,1.81,1.81,0,0,0-.76.15,1.28,1.28,0,0,0-.51.43,1,1,0,0,0-.19.62.89.89,0,0,0,.11.46,1,1,0,0,0,.35.31,3.59,3.59,0,0,0,.7.25l1.26.35a4.19,4.19,0,0,1,1.13.41,3,3,0,0,1,.83.66,2.55,2.55,0,0,1,.5.88A3,3,0,0,1,25,89.82m7.41,3.28H26.35V82.71h5.92L32,84.41H28.47v2.41h3v1.7h-3v2.79h3.94Zm8.9,0H38.84c-.31-.51-.63-1.08-1-1.7-.56-1-.94-1.66-1.15-2a1.49,1.49,0,0,0-.58-.58,1.32,1.32,0,0,0-.33-.08V93.1H33.76V82.71h3.88a3.42,3.42,0,0,1,1.27.22,2.77,2.77,0,0,1,1,.61,2.63,2.63,0,0,1,.61,1,3.52,3.52,0,0,1,.21,1.25,3.24,3.24,0,0,1-.31,1.42,2.57,2.57,0,0,1-.85,1.06,2,2,0,0,1-1.16.4,2.57,2.57,0,0,1,.44.43c.19.25.48.68.86,1.29s.71,1.17,1,1.65.49.86.64,1.1m-2.82-7.3a1.2,1.2,0,0,0-.75-1.27,3.55,3.55,0,0,0-1.18-.15h-.75v2.81h.7a4.43,4.43,0,0,0,1-.08,1,1,0,0,0,.55-.26,1.36,1.36,0,0,0,.41-1m11.72-3.09H48l-1.77,5.14c-.28.85-.48,1.54-.6,2.08-.12-.58-.28-1.19-.47-1.81l-1.73-5.41H41.16l3.53,10.47h1.9ZM53.14,93.1H51V82.71h2.18Zm9.19-.79a4,4,0,0,1-1.3.74,4.73,4.73,0,0,1-1.58.24,4.3,4.3,0,0,1-3.4-1.44,5.38,5.38,0,0,1-1.26-3.73,6.94,6.94,0,0,1,.7-3.23,4.48,4.48,0,0,1,1-1.29,4.27,4.27,0,0,1,1.38-.84,4.54,4.54,0,0,1,1.58-.28,5,5,0,0,1,1.49.23,3,3,0,0,1,1.14.59l-1,1.42a2.7,2.7,0,0,0-1.65-.58,2.2,2.2,0,0,0-1,.24,1.91,1.91,0,0,0-.77.66,3.13,3.13,0,0,0-.44,1.1,7.91,7.91,0,0,0-.14,1.58,12.66,12.66,0,0,0,.1,1.71,3.46,3.46,0,0,0,.33,1.07,2.13,2.13,0,0,0,2,1.17A2.8,2.8,0,0,0,61.38,91Zm7.27.79H63.53V82.71h5.93l-.26,1.7H65.66v2.41h3v1.7h-3v2.79H69.6Z"/><path class="cls-1" d="M4.13,62.41c-1-.08-1.16-.42-1.16-1s.3-.87,1-.87H18.81V58.19H3.64C1.47,58.19,0,59,0,61.44s1.11,3.24,3.58,3.45l12,1c.93.08,1.18.39,1.18,1s-.29,1-1.1,1H.6v2.37H15.93c2.63,0,3.79-1,3.79-3.55,0-2.27-1-3.16-3.62-3.39Zm23,3.24c0,1.7.34,2.31,2.22,2.31h13.4v2.37H28.57c-3.22,0-4.71-1.45-4.71-4.17v-8H42.72v2.37H27.1v2.38h15v2.32h-15Zm43.19-7.46v2.37h7.55v9.77h3.21V60.56h7.56V58.19Zm-17.9,0c-3.22,0-4.69,1.71-4.69,4.44v7.7h3.21V66.78H63.13v3.55h3.22V58.19Zm10.74,2.37V64.4H50.91V63.33c0-1.66.27-2.77,2.23-2.77Z"/><polygon class="cls-1" points="70.29 58.19 70.29 60.56 77.84 60.56 77.84 70.33 81.05 70.33 81.05 60.56 88.61 60.56 88.61 58.19 70.29 58.19"/><path class="cls-1" d="M18.51,16.72c0-1.66.15-5.72.23-8.11.11-3.06.75-4.92,2-6C22.5,1,24.53.65,29.39.39A288.86,288.86,0,0,1,66.45.86a4.6,4.6,0,0,1,2.35.59c.64.44.72.93.89,3.47.09,1.46.29,5.35.39,7.48-5-.25-13.35-.68-20.67-.75s-13.91,0-14.7.14a3.47,3.47,0,0,0-2.54,1.28l38,7v5.54Z"/><path class="cls-1" d="M18.46,19.43l51.65,9.62c0,1.4-.15,5.85-.23,8.4-.11,3.07-.75,4.93-2,6-1.74,1.55-3.77,1.92-8.63,2.19a290.84,290.84,0,0,1-37.06-.48,4.66,4.66,0,0,1-2.36-.59c-.63-.43-.71-.92-.88-3.47-.11-1.7-.36-6.74-.44-8.4,6.66.45,16.89.78,25.23.78,2.09,0,7.54.07,9,.07a4,4,0,0,0,3.43-1.52L18.46,25.65Z"/></g></g></g></svg>