<svg xmlns="http://www.w3.org/2000/svg" viewBox="0 0 81.46 94.09"><defs><style>.cls-1{fill:#231f20;}</style></defs><g id="Layer_2" data-name="Layer 2"><g id="Layer_1-2" data-name="Layer 1"><path class="cls-1" d="M39.56,0A35.22,35.22,0,1,0,74.78,35.22,35.21,35.21,0,0,0,39.56,0Zm0,69.55A34.33,34.33,0,1,1,73.9,35.22,34.33,34.33,0,0,1,39.56,69.55Z"/><path class="cls-1" d="M39.56,3.3A31.92,31.92,0,1,0,71.48,35.22,31.92,31.92,0,0,0,39.56,3.3Zm0,61A29.09,29.09,0,1,1,68.65,35.22,29.1,29.1,0,0,1,39.56,64.31Z"/><path class="cls-1" d="M61.68,49.14a14.92,14.92,0,0,0-7.89-3.88A.7.7,0,0,0,53,46V47a.66.66,0,0,1-.56.69H51.7c-.83,0-1-1-.82-1.64,1.78-6.36,2.21-10.22,2.19-13a28.57,28.57,0,0,0-1.44-9.9c-1.3-3.79-2.48-7.5-8.74-13.17a2.26,2.26,0,0,0-1.43-.61c-.62,0-1.12-.06-1.75-.06a26,26,0,0,0-7.48,1.09c-.89.27-.75.88-.27,1.3a36.42,36.42,0,0,1,7.79,8.86,4.27,4.27,0,0,1-3.37-1.5,42.71,42.71,0,0,0-8.48-6.19,1.22,1.22,0,0,0-1.27-.1A23.87,23.87,0,0,0,20,18.29c-.36.43-.13.75.23.94a49.09,49.09,0,0,1,9.36,6.65c-.69.58-1.77.39-3.34-.44a37.91,37.91,0,0,0-8.15-3.07,1.07,1.07,0,0,0-1.23.44A24.77,24.77,0,0,0,14,31.22a1,1,0,0,0,.88,1.18c5.17.9,14.38,3.33,15.91,14A1.2,1.2,0,0,1,29,47.57l-4.66-2.18a1.19,1.19,0,0,0-.52-.14H16.45A1,1,0,0,0,15.66,47a45.57,45.57,0,0,1,4.75,6.53.51.51,0,0,0,.5.29h3.2a1.15,1.15,0,0,0,.59-.17l3-1.76a1.09,1.09,0,0,1,.59-.11H52.39a.54.54,0,0,1,.58.53v1.19a.71.71,0,0,0,.82.69,15,15,0,0,0,7.89-3.88A.81.81,0,0,0,61.68,49.14ZM44.26,44.71a3.25,3.25,0,1,1,3.25-3.24A3.24,3.24,0,0,1,44.26,44.71Z"/><path class="cls-1" d="M.39,93.86c1.73.08,4.55.16,6.18.16,7.11,0,8,0,8-3.88,0-3-.9-3.29-4.67-3.4l-4.37-.13c-2-.07-2-.28-2-1.18s.25-.93,5.06-.93c.91,0,3.81,0,5.35.09a.22.22,0,0,0,.24-.25v-2a.23.23,0,0,0-.23-.26c-1.51-.08-4-.16-5.77-.16-7,0-8.1.13-8.1,3.73,0,3.08.68,3.49,5.15,3.64l4,.13c1.88.06,1.91.29,1.91,1,0,1-.08,1-4.52,1-2.07,0-4.2-.08-6.14-.14-.17,0-.25.06-.25.22V93.6a.23.23,0,0,0,.23.26m75.25-4.32H70.42l2.4-4.74h.42ZM60.4,87.89v.17c0,3-.24,3.11-4.15,3.11H53V84.78h3.23c3.91,0,4.15.1,4.15,3.11m-16.93,0v.17c0,3.29-.13,3.34-4,3.34s-4-.05-4-3.34v-.17c0-3.29.13-3.34,4-3.34s4,0,4,3.34m38,5.66L75.8,82.29a.25.25,0,0,0-.27-.18h-5a.27.27,0,0,0-.28.18L64.63,93.55c-.08.18,0,.3.18.3h3.25a.25.25,0,0,0,.27-.18L69.18,92h7.7l.85,1.67a.26.26,0,0,0,.28.18h3.24c.2,0,.26-.12.18-.3M56.23,82.11H49.72a.21.21,0,0,0-.24.24V93.6a.22.22,0,0,0,.24.25h6.51c7,0,7.87-.35,7.87-5.83v-.09c0-5.48-.91-5.82-7.87-5.82M31,93.55l-6.49-6.34,6.1-4.81c.18-.13.11-.29-.12-.29h-4a.43.43,0,0,0-.3.11L20,87.2V82.35a.21.21,0,0,0-.24-.24h-3c-.17,0-.25.08-.25.24V93.6a.22.22,0,0,0,.25.25h3A.22.22,0,0,0,20,93.6V90.76l1.85-1.45,4.46,4.41a.42.42,0,0,0,.31.13h4.28c.21,0,.27-.15.11-.3m.69-5.66v.17c0,5.69.94,6,7.77,6s7.76-.34,7.76-6v-.15c0-5.68-.93-6-7.76-6s-7.77.35-7.77,6M4.25,79.39l1.49,1.69a.32.32,0,0,0,.29.13H9.15a.32.32,0,0,0,.29-.13l1.48-1.69c.13-.15.08-.3-.13-.3H8.69a.37.37,0,0,0-.3.15l-.63.91H7.42l-.64-.91a.35.35,0,0,0-.31-.15H4.38c-.21,0-.25.15-.13.3"/></g></g></svg>