<svg xmlns="http://www.w3.org/2000/svg" viewBox="0 0 96.19 62.21"><defs><style>.cls-1{fill:#231f20;}</style></defs><g id="Layer_2" data-name="Layer 2"><g id="Layer_1-2" data-name="Layer 1"><g id="logo_TOYOTA" data-name="logo TOYOTA"><path class="cls-1" d="M51.69,58.63c4.79-3.56,8.26-14,8.26-26.42,0-.48,0-1,0-1.45C73.83,28.67,83.79,23,83.79,16.38a6.58,6.58,0,0,0-.06-.9A22.49,22.49,0,0,1,89.3,29.94C89.3,45,72.76,57.36,51.69,58.63M6.9,29.94a22.48,22.48,0,0,1,5.56-14.46,6.58,6.58,0,0,0-.06.9c0,6.64,10,12.29,23.86,14.38,0,.48,0,1,0,1.45,0,12.38,3.47,22.86,8.27,26.42C23.43,57.36,6.9,45,6.9,29.94M48.1,4.5c-5.17,0-9.56,7.72-11.19,18.5-9.78-1.53-16.6-5-16.6-9,0-5.44,12.44-9.86,27.79-9.86S75.89,8.52,75.89,14c0,4-6.83,7.51-16.61,9-1.63-10.78-6-18.5-11.18-18.5m-6.89,19C42.28,16.6,45,11.7,48.1,11.7S53.91,16.6,55,23.52c-2.21.2-4.52.31-6.89.31s-4.69-.11-6.89-.31M48.1,48.86c-4,0-7.18-7.78-7.39-17.57,2.39.21,4.86.33,7.39.33s5-.12,7.38-.33C55.27,41.08,52,48.86,48.1,48.86M48.1,0C21.53,0,0,13.93,0,31.1S21.53,62.21,48.1,62.21,96.19,48.28,96.19,31.1,74.66,0,48.1,0"/></g></g></g></svg>