<svg xmlns="http://www.w3.org/2000/svg" viewBox="0 0 81.22 93.2"><defs><style>.cls-1{fill:#231f20;fill-rule:evenodd;}</style></defs><g id="Layer_2" data-name="Layer 2"><g id="Layer_1-2" data-name="Layer 1"><path class="cls-1" d="M40.72,61.68A30.84,30.84,0,1,0,9.88,30.84,30.8,30.8,0,0,0,40.72,61.68M31.8,44.76c-.17,0-.26-.18-.34-.35L17.24,15.77a28.84,28.84,0,0,1,10-9.44L37.49,29.07a.71.71,0,0,0,.77.52h4.91a.72.72,0,0,0,.78-.52L54.16,6.33a28.9,28.9,0,0,1,10,9.44L50,44.41c-.09.17-.17.35-.34.35s-.26-.18-.35-.35L44,32.18a.72.72,0,0,0-.78-.52H38.26a.72.72,0,0,0-.77.52L32.15,44.41c-.09.17-.18.35-.35.35m8.92-20.25c-.17,0-.26-.17-.35-.35L31.58,4.44a26.88,26.88,0,0,1,18.27,0L41.06,24.16c-.08.18-.17.35-.34.35m0,34.33a28.09,28.09,0,0,1-27.92-28,27.45,27.45,0,0,1,1.77-9.78L30.9,53.93c.21.43.47.77,1,.77a1.07,1.07,0,0,0,1-.77l7.49-16.84c.09-.18.18-.35.35-.35s.26.17.34.35l7.5,16.84a1.07,1.07,0,0,0,1,.77c.51,0,.77-.34,1-.77L66.86,21.06a27.24,27.24,0,0,1,1.77,9.78,28.09,28.09,0,0,1-27.91,28"/><path class="cls-1" d="M0,91.56A12.81,12.81,0,0,0,5.85,93.2c4,0,6.43-2,6.43-5.44,0-2.61-1.55-4-4.79-5l-1.8-.58c-1.39-.44-1.77-1.09-1.77-2,0-1.21.76-2,2.66-2a10.64,10.64,0,0,1,4,1.09l1.06-2.81a12.47,12.47,0,0,0-5.09-1.24c-4.1,0-6.25,2.12-6.25,5.26,0,2.21,1.34,3.9,4.07,4.79l1.85.61c1.8.6,2.43,1.06,2.43,2.18,0,1.44-.93,2.17-2.83,2.17A10.7,10.7,0,0,1,1.09,88.8Zm25.8-3.85a16.56,16.56,0,0,0,.17-2.2c0-2.86-1.74-5.27-5.69-5.27s-6.1,3-6.1,6.46,2.05,6.5,6.28,6.5a11.84,11.84,0,0,0,4.93-1l-.78-2.46a11.37,11.37,0,0,1-3.9.76,2.8,2.8,0,0,1-3.06-2.76Zm-8.15-2.13a2.71,2.71,0,0,1,2.65-2.86,2.25,2.25,0,0,1,2.56,2.48,2.36,2.36,0,0,1,0,.38Zm10.83-5v12.2H31.9V84.34a3.26,3.26,0,0,1,2.66-1.19,7.77,7.77,0,0,1,1.21.1l.31-2.86a6,6,0,0,0-1.22-.15,3.61,3.61,0,0,0-3.09,1.85h-.05l-.48-1.47Zm21.32,0H46.36l-3.07,8.74h0l-3.06-8.74H36.74v.25l4.68,11.95h3.69L49.8,80.87Zm5.29,0H51.67v12.2h3.42Zm-3.67-4a2,2,0,1,0,2-1.87,1.84,1.84,0,0,0-2,1.87m6.23,10.1c0,4,2.33,6.48,6.48,6.48a11.59,11.59,0,0,0,3.79-.73l-.68-2.61a8.5,8.5,0,0,1-2.71.53c-1.9,0-3.39-1-3.39-3.67s1.54-3.67,3.39-3.67a8.78,8.78,0,0,1,2.71.53l.68-2.6a11.31,11.31,0,0,0-3.79-.74c-4.15,0-6.48,2.53-6.48,6.48m23.39,1a14.82,14.82,0,0,0,.18-2.2c0-2.86-1.75-5.27-5.7-5.27s-6.1,3-6.1,6.46,2,6.5,6.28,6.5a11.89,11.89,0,0,0,4.94-1l-.79-2.46a11.37,11.37,0,0,1-3.9.76,2.8,2.8,0,0,1-3.06-2.76Zm-8.15-2.13a2.72,2.72,0,0,1,2.66-2.86A2.25,2.25,0,0,1,78.1,85.2a2.36,2.36,0,0,1,0,.38Z"/></g></g></svg>