<svg xmlns="http://www.w3.org/2000/svg" viewBox="0 0 68.52 95.47"><defs><style>.cls-1{fill:#231f20;fill-rule:evenodd;}</style></defs><g id="Layer_2" data-name="Layer 2"><g id="Layer_1-2" data-name="Layer 1"><g id="vw_autovehicule" data-name="vw autovehicule"><path class="cls-1" d="M8.59,92.46a7.35,7.35,0,0,0,3.25,1c1.29,0,1.93-.5,1.93-1.49,0-.76-.43-1.07-1.66-1.48l-1.26-.42C9,89.46,8.07,88.3,8.07,86.8c0-2.14,1.47-3.59,4.27-3.59a8.4,8.4,0,0,1,3.47.85L15.08,86a7.31,7.31,0,0,0-2.74-.74c-1.3,0-1.82.53-1.82,1.36,0,.61.26,1.06,1.21,1.35l1.23.4c2.21.69,3.26,1.64,3.26,3.42,0,2.31-1.67,3.71-4.38,3.71a8.66,8.66,0,0,1-4-1.13Z"/><path class="cls-1" d="M23.26,90.27a1.14,1.14,0,0,0,0-.26,1.53,1.53,0,0,0-1.74-1.69,1.85,1.85,0,0,0-1.81,2Zm-3.53,1.45a1.9,1.9,0,0,0,2.08,1.88,7.59,7.59,0,0,0,2.66-.52L25,94.76a8,8,0,0,1-3.37.71c-2.88,0-4.28-2-4.28-4.44a4.07,4.07,0,0,1,4.16-4.4c2.69,0,3.89,1.64,3.89,3.59a9.28,9.28,0,0,1-.13,1.5Z"/><path class="cls-1" d="M28.84,86.89l.33,1h0a2.44,2.44,0,0,1,2.11-1.26,3.93,3.93,0,0,1,.83.1l-.21,2a5.07,5.07,0,0,0-.83-.07,2.21,2.21,0,0,0-1.81.81v5.79H27V86.89Z"/><polygon class="cls-1" points="41.5 87.06 38.3 95.21 35.78 95.21 32.59 87.06 32.59 86.89 34.94 86.89 37.03 92.84 37.06 92.84 39.15 86.89 41.5 86.89 41.5 87.06"/><path class="cls-1" d="M42.44,95.21V86.89h2.33v8.32Zm1.18-12.33a1.28,1.28,0,1,1-1.35,1.28A1.26,1.26,0,0,1,43.62,82.88Z"/><path class="cls-1" d="M50.78,86.63a7.8,7.8,0,0,1,2.59.5l-.47,1.78a5.64,5.64,0,0,0-1.84-.37,2.51,2.51,0,0,0,0,5,5.93,5.93,0,0,0,1.84-.36L53.37,95a8.06,8.06,0,0,1-2.59.5,4.42,4.42,0,1,1,0-8.84Z"/><path class="cls-1" d="M60.14,90.27a2.26,2.26,0,0,0,0-.26,1.53,1.53,0,0,0-1.74-1.69,1.85,1.85,0,0,0-1.81,2ZM56.6,91.72a1.9,1.9,0,0,0,2.09,1.88,7.68,7.68,0,0,0,2.66-.52l.53,1.68a8,8,0,0,1-3.37.71c-2.88,0-4.28-2-4.28-4.44a4.07,4.07,0,0,1,4.16-4.4c2.7,0,3.89,1.64,3.89,3.59a10.81,10.81,0,0,1-.12,1.5Z"/><path class="cls-1" d="M35,45.24A22.62,22.62,0,1,0,12.34,22.62,22.6,22.6,0,0,0,35,45.24ZM28.42,32.82c-.13,0-.19-.13-.26-.25l-10.42-21A21.23,21.23,0,0,1,25.1,4.64l7.49,16.68a.51.51,0,0,0,.56.38h3.61a.51.51,0,0,0,.56-.38L44.81,4.64a21.23,21.23,0,0,1,7.36,6.92l-10.42,21c-.07.12-.13.25-.26.25s-.19-.13-.25-.25l-3.92-9a.51.51,0,0,0-.56-.38H33.15a.51.51,0,0,0-.56.38l-3.92,9c-.06.12-.13.25-.25.25ZM35,18c-.13,0-.19-.12-.26-.25L28.26,3.25a19.74,19.74,0,0,1,13.39,0L35.21,17.72c-.07.13-.13.25-.25.25Zm0,25.18A20.6,20.6,0,0,1,14.49,22.62a20.09,20.09,0,0,1,1.29-7.17l12,24.1c.16.32.35.57.73.57a.8.8,0,0,0,.73-.57L34.7,27.2c.07-.13.13-.25.26-.25s.18.12.25.25L40.7,39.55a.8.8,0,0,0,.73.57c.38,0,.57-.25.73-.57l12-24.1a20.09,20.09,0,0,1,1.29,7.17A20.6,20.6,0,0,1,35,43.15Z"/><path class="cls-1" d="M4.72,56.83H2.86L0,64.62H1.74L2.27,63H5.32l.51,1.61H7.58L4.72,56.83ZM3.8,58.45l1.07,3.28H2.7l1.07-3.28Zm4.48.64v3.49a1.94,1.94,0,0,0,2,2.21A2.54,2.54,0,0,0,12,64.08h0l.21.54h1.25V59.09H11.94v4a2,2,0,0,1-1.17.47c-.68,0-.94-.38-.94-1.1V59.09Zm7.18-1.28v1.28l-1,.35v.83h1v2.9c0,1.11.57,1.62,1.79,1.62a6.21,6.21,0,0,0,1.3-.17V63.36a3.48,3.48,0,0,1-.89.16.57.57,0,0,1-.66-.63V60.27h1.58V59.09H17V57.81Zm5.51,4c0-1.12.54-1.67,1.33-1.67s1.34.55,1.34,1.67-.53,1.66-1.34,1.66S21,63,21,61.86Zm4.25,0a2.76,2.76,0,0,0-2.92-2.94,2.94,2.94,0,0,0,0,5.87,2.76,2.76,0,0,0,2.92-2.93Zm6.32-2.77H30l-1.38,4h0l-1.38-4H25.63v.12l2.12,5.41h1.67l2.12-5.41v-.12Zm5.67,3.21a6.16,6.16,0,0,0,.08-1,2.29,2.29,0,0,0-2.57-2.39,2.94,2.94,0,0,0,.08,5.87A5.39,5.39,0,0,0,37,64.32l-.35-1.11a5.31,5.31,0,0,1-1.77.34,1.27,1.27,0,0,1-1.39-1.25Zm-3.69-1A1.25,1.25,0,0,1,34.73,60a1,1,0,0,1,1.15,1.13,1,1,0,0,1,0,.17ZM43.7,64.62V61.14a2,2,0,0,0-2.05-2.22,2.58,2.58,0,0,0-1.65.63h0V56.6H38.43v8H40v-3.9a1.67,1.67,0,0,1,1.19-.53c.67,0,1,.4,1,1.1v3.33Zm2.93,0V59.09H45.09v5.53ZM45,57.28a.9.9,0,1,0,.89-.84.83.83,0,0,0-.89.84Zm2.82,4.58a2.7,2.7,0,0,0,2.93,2.93,5.45,5.45,0,0,0,1.72-.33l-.31-1.18a3.93,3.93,0,0,1-1.22.24,1.67,1.67,0,0,1,0-3.33,3.93,3.93,0,0,1,1.22.24l.31-1.18a5.45,5.45,0,0,0-1.72-.33,2.7,2.7,0,0,0-2.93,2.94Zm5.72-2.77v3.49c0,1.33.68,2.21,2,2.21a2.54,2.54,0,0,0,1.72-.71h0l.21.54h1.25V59.09H57.16v4a2,2,0,0,1-1.17.47c-.67,0-.94-.38-.94-1.1V59.09Zm6.62-2.49v6.5c0,1.1.37,1.62,1.42,1.62a4.92,4.92,0,0,0,.92-.08v-1h-.61c-.17,0-.18,0-.18-.21V56.6Zm8.31,5.7a7.59,7.59,0,0,0,.08-1,2.3,2.3,0,0,0-2.58-2.39A2.94,2.94,0,0,0,66,64.79a5.39,5.39,0,0,0,2.23-.47l-.35-1.11a5.31,5.31,0,0,1-1.77.34,1.26,1.26,0,0,1-1.38-1.25Zm-3.69-1A1.23,1.23,0,0,1,66,60a1,1,0,0,1,1.16,1.13,1,1,0,0,1,0,.17Z"/><path class="cls-1" d="M6.68,71.75c0,2.42,1.34,4.06,3.8,4.06a5.37,5.37,0,0,0,2.21-.5l-.43-1.26a4.14,4.14,0,0,1-1.78.4c-1.39,0-2.13-1.09-2.13-2.7S9.09,69,10.48,69a4.14,4.14,0,0,1,1.78.4l.43-1.26a5.37,5.37,0,0,0-2.21-.5c-2.46,0-3.8,1.64-3.8,4.07Zm8.25,1.13c0-1.11.54-1.66,1.33-1.66s1.34.55,1.34,1.66-.52,1.66-1.34,1.66-1.33-.55-1.33-1.66Zm4.25,0A2.75,2.75,0,0,0,16.26,70a2.93,2.93,0,0,0,0,5.86,2.75,2.75,0,0,0,2.92-2.93Zm1.15-2.76v5.52h1.55v-4a1.93,1.93,0,0,1,1.2-.47c.73,0,1,.4,1,1.1v3.32H25.6V72.16a1.36,1.36,0,0,0-.05-.41,2,2,0,0,1,1.25-.53c.74,0,1,.38,1,1.1v3.32h1.54V72.16a1.94,1.94,0,0,0-2-2.21,2.8,2.8,0,0,0-2,.84h0A1.86,1.86,0,0,0,23.56,70a2.57,2.57,0,0,0-1.77.71h0l-.19-.54Zm15.33,3.21a7.92,7.92,0,0,0,.08-1A2.29,2.29,0,0,0,33.16,70a2.93,2.93,0,0,0,.08,5.86,5.28,5.28,0,0,0,2.24-.47l-.36-1.11a5,5,0,0,1-1.76.35A1.27,1.27,0,0,1,32,73.33Zm-3.69-1a1.23,1.23,0,0,1,1.2-1.29,1,1,0,0,1,1.16,1.12.91.91,0,0,1,0,.17Zm4.9-2.24v5.52h1.55V71.8a1.48,1.48,0,0,1,1.2-.54,3.74,3.74,0,0,1,.55,0L40.31,70a2.17,2.17,0,0,0-.55-.07,1.64,1.64,0,0,0-1.4.83h0l-.22-.66Zm3.91,2.76a2.7,2.7,0,0,0,2.93,2.93,5.13,5.13,0,0,0,1.72-.33l-.31-1.18a3.93,3.93,0,0,1-1.22.24,1.66,1.66,0,0,1,0-3.32,3.93,3.93,0,0,1,1.22.24l.31-1.18A5.13,5.13,0,0,0,43.71,70a2.7,2.7,0,0,0-2.93,2.93Zm7.32,2.76V70.12H46.56v5.52Zm-1.66-7.33a.9.9,0,1,0,.9-.85.84.84,0,0,0-.9.85Zm7.74,3.87c0-1.42-.78-2.23-2.38-2.23a5.86,5.86,0,0,0-2.28.49l.37,1.18a4.78,4.78,0,0,1,1.83-.4c.34,0,.94.1.94.79v.25h-.74c-2,0-2.73.59-2.73,1.81a1.67,1.67,0,0,0,1.87,1.74,3.15,3.15,0,0,0,1.78-.68h0a1.06,1.06,0,0,0,1.1.65,4.4,4.4,0,0,0,.8-.08V74.64h-.4c-.17,0-.18,0-.18-.2V72.18Zm-1.52,1.08v1a2.42,2.42,0,0,1-1.26.38c-.47,0-.73-.21-.73-.67s.39-.67,1.41-.67Zm3.09-5.64v6.51c0,1.1.36,1.61,1.42,1.61a4.81,4.81,0,0,0,.91-.08v-1h-.6c-.18,0-.19,0-.19-.21V67.62Zm8.3,5.71a6.4,6.4,0,0,0,.08-1A2.29,2.29,0,0,0,61.55,70a2.93,2.93,0,0,0,.08,5.86,5.25,5.25,0,0,0,2.24-.47l-.36-1.11a5,5,0,0,1-1.76.35,1.27,1.27,0,0,1-1.39-1.25Zm-3.69-1a1.24,1.24,0,0,1,1.21-1.29,1,1,0,0,1,1.15,1.12.91.91,0,0,1,0,.17Z"/></g></g></g></svg>