<svg xmlns="http://www.w3.org/2000/svg" viewBox="0 0 300.73 63.48"><defs><style>.cls-1,.cls-2{fill:#393745;}.cls-2{stroke:#3a3846;stroke-miterlimit:10;stroke-width:1.49px;}</style></defs><g id="Layer_2" data-name="Layer 2"><g id="Layer_1-2" data-name="Layer 1"><g id="logo_TOYOTA" data-name="logo TOYOTA"><path class="cls-1" d="M47.31,53.66c4.38-3.25,7.56-12.84,7.56-24.17,0-.45,0-.9,0-1.34C67.58,26.24,76.7,21.07,76.7,15a5.79,5.79,0,0,0-.06-.83A20.6,20.6,0,0,1,81.73,27.4c0,13.79-15.13,25.1-34.42,26.26M6.31,27.4a20.61,20.61,0,0,1,5.1-13.24,5.79,5.79,0,0,0-.06.83c0,6.08,9.12,11.25,21.84,13.16,0,.44,0,.89,0,1.34,0,11.33,3.18,20.92,7.57,24.17C21.45,52.5,6.31,41.19,6.31,27.4M44,4.12c-4.72,0-8.74,7.07-10.23,16.93-8.95-1.4-15.2-4.58-15.2-8.27,0-5,11.38-9,25.43-9s25.44,4.05,25.44,9c0,3.69-6.25,6.87-15.2,8.27C52.77,11.19,48.75,4.12,44,4.12m-6.3,17.41c1-6.33,3.43-10.82,6.3-10.82s5.32,4.49,6.31,10.82c-2,.18-4.13.28-6.31.28s-4.29-.1-6.3-.28M44,44.72c-3.61,0-6.56-7.12-6.75-16.08,2.18.19,4.44.3,6.75.3s4.58-.11,6.76-.3c-.19,9-3.14,16.08-6.76,16.08M44,0C19.71,0,0,12.75,0,28.47S19.71,56.94,44,56.94s44-12.75,44-28.47S68.34,0,44,0"/></g><line class="cls-2" x1="102.97" y1="0.13" x2="102.97" y2="56.94"/><path class="cls-1" d="M131.34,4.08h-5.83V22.63h-4.27V4.08h-5.89V.38h16Z"/><path class="cls-1" d="M129.93,14.7c0-4.76,3.51-8.24,8.62-8.24s8.59,3.48,8.59,8.24-3.51,8.24-8.59,8.24S129.93,19.46,129.93,14.7Zm13.16,0a4.56,4.56,0,1,0-9.12,0,4.56,4.56,0,1,0,9.12,0Z"/><path class="cls-1" d="M163.91,6.77,157,24.6c-1.19,3.11-3,4.67-6.08,4.67a7.22,7.22,0,0,1-2.63-.43l.47-3.36a4.14,4.14,0,0,0,1.44.25,3.21,3.21,0,0,0,3.26-2.29L154,22,147.61,6.77h4.29l4.17,10.78,3.76-10.78Z"/><path class="cls-1" d="M164.19,14.7c0-4.76,3.51-8.24,8.62-8.24s8.59,3.48,8.59,8.24-3.51,8.24-8.59,8.24S164.19,19.46,164.19,14.7Zm13.17,0a4.56,4.56,0,1,0-9.12,0,4.56,4.56,0,1,0,9.12,0Z"/><path class="cls-1" d="M185.32,17.74V10.06h-2.44V6.77h2.44V2.32l3.92-.5V6.77h4.29v3.29h-4.29v7.15c0,1.5.69,2.19,1.88,2.19a5.86,5.86,0,0,0,2.72-.84l.63,3.16a7.83,7.83,0,0,1-4.29,1.22C187.14,22.94,185.32,21.25,185.32,17.74Z"/><path class="cls-1" d="M210,12.63v10H206.1V20.44A6.41,6.41,0,0,1,200.74,23c-3.1,0-5.14-1.78-5.14-4.73,0-3.7,3.26-5.08,10.47-5.17v-.31c0-1.88-1.1-3.07-3.51-3.07a8.72,8.72,0,0,0-4.95,1.66l-.91-3.11a12.59,12.59,0,0,1,6.55-1.78C207.32,6.46,210,8.34,210,12.63Zm-3.92,3.92V15.48c-4.8.1-6.39.82-6.39,2.54,0,1.26.87,2,2.47,2C204.06,20.06,206.07,19,206.07,16.55Z"/><path class="cls-1" d="M131.45,51c0,3.52-2.45,5.94-6.54,5.94H117.8V35.74h5.91c4,0,6.36,2.15,6.36,5.4a4.94,4.94,0,0,1-2.89,4.69A5,5,0,0,1,131.45,51ZM120,45.29h3.85a3.89,3.89,0,0,0,4-4c0-2.18-1.58-3.61-4.35-3.61H120Zm9.17,5.62c0-2.36-1.61-3.68-4.12-3.68h-5V55h4.66C127.6,55,129.21,53.33,129.21,50.91Z"/><path class="cls-1" d="M148.58,42v15h-2.09V54.1A5.8,5.8,0,0,1,141,57.24c-3.31,0-5.41-2-5.41-6.09V42h2.1v8.63c0,3.13,1.4,4.78,4,4.78a4.68,4.68,0,0,0,4.83-4.87V42Z"/><path class="cls-1" d="M152.64,49.47c0-4.62,3.11-7.82,7.59-7.82a8.91,8.91,0,0,1,5.13,1.58l-.68,1.91a7.19,7.19,0,0,0-4.36-1.52c-3.32,0-5.53,2.33-5.53,5.79s2.21,5.86,5.35,5.86A8.52,8.52,0,0,0,165,53.65l.54,1.86a9.37,9.37,0,0,1-5.52,1.73C155.75,57.24,152.64,54.1,152.64,49.47Z"/><path class="cls-1" d="M182.11,42v15H180V54.1a5.81,5.81,0,0,1-5.52,3.14c-3.32,0-5.41-2-5.41-6.09V42h2.09v8.63c0,3.13,1.41,4.78,4,4.78A4.68,4.68,0,0,0,180,50.49V42Z"/><path class="cls-1" d="M195.25,42l-.51,2a4.78,4.78,0,0,0-1.53-.3c-2.5,0-3.67,2.21-3.67,5.29v8h-2.06V42h2.06v2.69c.87-2.24,2.18-3,3.88-3A4.86,4.86,0,0,1,195.25,42Z"/><path class="cls-1" d="M210.74,49.59h-12.3c.09,3.53,2.33,5.74,5.76,5.74a8.14,8.14,0,0,0,5.47-2.09l.59,1.85a9.41,9.41,0,0,1-6.18,2.15,7.47,7.47,0,0,1-7.76-7.8c0-4.47,3.16-7.79,7.37-7.79s7.05,3.2,7.05,7.67ZM208.53,48a4.78,4.78,0,0,0-4.84-4.45A5.26,5.26,0,0,0,198.56,48Z"/><path class="cls-1" d="M213.66,55.63l.57-1.86A7.52,7.52,0,0,0,219,55.48c2.06,0,3.34-1,3.34-2.51s-1.34-2-3.7-2.75-4.54-1.49-4.54-4.27,2.15-4.3,5.29-4.3a8.71,8.71,0,0,1,4.54,1.25l-.45,1.86a7.68,7.68,0,0,0-4.15-1.35c-1.88,0-3.14.87-3.14,2.33s1.55,2.12,3.47,2.66c2.53.72,4.74,1.61,4.74,4.36s-2,4.48-5.52,4.48A8.57,8.57,0,0,1,213.66,55.63Zm4,3h2.21l-2.13,4.87h-1.85Z"/><path class="cls-1" d="M229.25,53.18V43.77h-2.12V42h2.12V37.56l2.09-.36V42h4.36v1.82h-4.36v9.17c0,1.55.77,2.33,2.12,2.33a5.13,5.13,0,0,0,2.69-.9l.41,1.82a6.18,6.18,0,0,1-3.49,1.05C230.8,57.24,229.25,55.92,229.25,53.18Z"/><path class="cls-1" d="M238.77,37.08a1.59,1.59,0,1,1,1.58,1.58A1.56,1.56,0,0,1,238.77,37.08Zm.51,4.87h2.09v15h-2.09Z"/><path class="cls-1" d="M254.67,36.49h12.48v2.16h-9.7V45.2h7.32v2.15h-7.32v7.43h10v2.16H254.67Z"/><path class="cls-1" d="M271.06,53.76a10.74,10.74,0,0,0,2.51,1.12,11,11,0,0,0,3.14.39,5,5,0,0,0,3.39-1,3.29,3.29,0,0,0,1.09-2.58,3.41,3.41,0,0,0-.37-1.67,3.34,3.34,0,0,0-1-1.09,5.29,5.29,0,0,0-1.45-.71c-.55-.18-1.12-.36-1.7-.53s-1.44-.4-2.16-.65a7.71,7.71,0,0,1-1.94-1,4.71,4.71,0,0,1-1.4-1.65,5.63,5.63,0,0,1-.54-2.64,5.77,5.77,0,0,1,.42-2.19,5.07,5.07,0,0,1,1.31-1.83,6.14,6.14,0,0,1,2.21-1.25,9.78,9.78,0,0,1,3.12-.45,11.69,11.69,0,0,1,1.66.12,15,15,0,0,1,1.6.34,14.73,14.73,0,0,1,1.42.48,8.36,8.36,0,0,1,1.16.59l-1,1.9a8.56,8.56,0,0,0-2.2-1,8.45,8.45,0,0,0-2.51-.38,5.59,5.59,0,0,0-3.36.85,3.26,3.26,0,0,0-.75,4,3.17,3.17,0,0,0,1.08,1,7.79,7.79,0,0,0,1.54.69l1.8.57c.7.21,1.4.44,2.09.69a7.22,7.22,0,0,1,1.87,1,4.71,4.71,0,0,1,1.35,1.61,5.34,5.34,0,0,1,.51,2.48,5.9,5.9,0,0,1-1.9,4.6,8,8,0,0,1-5.48,1.7A14.18,14.18,0,0,1,273,57,10,10,0,0,1,270,55.78Z"/><path class="cls-1" d="M292.11,38.59h-5.82v-2.1h14.44v2.1h-5.84V56.94h-2.78Z"/></g></g></svg>