<svg xmlns="http://www.w3.org/2000/svg" viewBox="0 0 457.8 114.63"><defs><style>.cls-1{fill:#7f8387;}.cls-1,.cls-2,.cls-3,.cls-4,.cls-5{fill-rule:evenodd;}.cls-2{fill:#f1c319;}.cls-3{fill:#009cd9;}.cls-4{fill:#00a88c;}.cls-5{fill:#70ba44;}</style></defs><g id="Layer_2" data-name="Layer 2"><g id="avia-logo"><path class="cls-1" d="M419.53,34.7l9.56-5a22.21,22.21,0,0,0,2,3.89A6.3,6.3,0,0,0,434,35.9a13.15,13.15,0,0,0,4.67.69c3,0,5.11-.36,6.41-1.08a3.09,3.09,0,0,0,1.65-2.9c0-1.38-.82-2.46-2.46-3.25a73.66,73.66,0,0,0-7.84-2.6,28.43,28.43,0,0,1-10.15-5,11,11,0,0,1-4.16-8.85,11.18,11.18,0,0,1,4.23-9.07Q431,0,438.82,0a23.16,23.16,0,0,1,7.4,1,18,18,0,0,1,5.93,3.51,20.18,20.18,0,0,1,3.71,4.36l-8.69,5.27a9.17,9.17,0,0,0-3.47-3.79,11,11,0,0,0-5.31-1.09,7.6,7.6,0,0,0-4,.88A2.71,2.71,0,0,0,433,12.59,3.14,3.14,0,0,0,435,15.54a59.49,59.49,0,0,0,6.93,2.24,38.47,38.47,0,0,1,11.37,5c3,2.12,4.49,5.29,4.49,9.49a13.89,13.89,0,0,1-1.86,7.1,12.32,12.32,0,0,1-7.27,5.43A31.15,31.15,0,0,1,439,46.21a28,28,0,0,1-12.29-2.41,12.91,12.91,0,0,1-4.53-3.44,17.47,17.47,0,0,1-2.69-5.66Zm-29.2-13.53h4.75A13.46,13.46,0,0,0,401.42,20c1.43-.78,2.14-2.25,2.14-4.43a4.52,4.52,0,0,0-2-4.13c-1.31-.84-3.49-1.26-6.52-1.26h-4.75v11Zm.07,9V45.3h-11V.91H394a40.89,40.89,0,0,1,8.95.78q11.65,2.69,11.66,13.88,0,9-8.58,12.79L418.39,45.3h-13.3L395.3,30c-1.75.09-3.06.14-3.93.14ZM345,9.69q-7.72,0-11.68,4.17c-2.09,2.18-3.12,5.21-3.12,9.06,0,4.09,1,7.23,3.12,9.44q3.93,4.16,11.74,4.16t11.6-4.16c2.08-2.21,3.13-5.31,3.13-9.27s-1.05-7-3.13-9.23c-2.59-2.78-6.49-4.17-11.66-4.17ZM345,0q13.26,0,20.44,7.18,5.93,5.93,5.93,15.91T365.45,39q-7.14,7.17-20.36,7.18-13.38,0-20.54-7.18c-4-4-5.92-9.38-5.92-16.23A23.68,23.68,0,0,1,321.06,12,20.38,20.38,0,0,1,332.9,1.92,35.25,35.25,0,0,1,345,0ZM292.55,45.3V10.54H279.86V.91h36.59v9.63H303.74V45.3ZM251.33,9.69q-7.71,0-11.68,4.17c-2.09,2.18-3.12,5.21-3.12,9.06,0,4.09,1,7.23,3.12,9.44,2.61,2.77,6.54,4.16,11.74,4.16s9-1.39,11.6-4.16c2.09-2.21,3.13-5.31,3.13-9.27s-1-7-3.13-9.23c-2.6-2.78-6.5-4.17-11.66-4.17Zm0-9.69q13.26,0,20.44,7.18,5.93,5.93,5.93,15.91T271.77,39q-7.14,7.17-20.35,7.18Q238,46.21,230.87,39c-4-4-5.92-9.38-5.92-16.23A23.68,23.68,0,0,1,227.38,12,20.37,20.37,0,0,1,239.23,1.92,35.12,35.12,0,0,1,251.33,0ZM165.7,45.3V.91h8.16l17.43,24,17.46-24h8.17V45.3H206.09V20.16L194.45,36.72h-6.28L176.53,20.16V45.3Z"/><polygon class="cls-2" points="26.1 0.06 39.15 22.66 52.2 45.26 40.45 45.26 39.15 43 26.1 20.4 13.05 43 11.74 45.26 0 45.26 13.05 22.66 26.1 0.06"/><polygon class="cls-3" points="125.29 0.06 112.24 22.66 99.19 45.26 110.93 45.26 112.24 43 125.29 20.4 138.34 43 139.64 45.26 151.38 45.26 138.34 22.66 125.29 0.06"/><polygon class="cls-4" points="87.43 45.26 113.53 0.06 101.79 0.06 100.48 2.32 75.69 45.26 87.43 45.26"/><polygon class="cls-5" points="63.94 45.26 76.99 22.66 90.04 0.06 78.3 0.06 76.99 2.32 63.94 24.92 50.89 2.32 49.59 0.06 37.84 0.06 50.89 22.66 63.94 45.26"/><path class="cls-1" d="M430,66.14a.85.85,0,0,1-.55,1.1,2.65,2.65,0,0,1-.64.09,2.79,2.79,0,0,0-.64.09l-2.46.18-2.46.19a24.33,24.33,0,0,1-2.56.22,24.39,24.39,0,0,0-2.55.23c-.3,0-.61,0-.92.05s-.6,0-.9,0l-.28.09a.35.35,0,0,0-.36.28c-.3.85-.61,1.68-.91,2.51s-.62,1.65-.92,2.51c-.55,1.58-1.06,3.19-1.55,4.83s-.94,3.28-1.37,4.93-.71,3.16-1,4.74a47.66,47.66,0,0,0-.78,4.83c-.12.86-.2,1.66-.23,2.42a12.69,12.69,0,0,0,.14,2.42l.27.82c.12.31.3.43.55.36a5.65,5.65,0,0,0,.86-.4,6.17,6.17,0,0,0,.78-.51c.85-.66,1.67-1.38,2.47-2.14s1.57-1.57,2.37-2.42c1.39-1.58,2.79-3.15,4.19-4.69l.36-.41v3.24c-.64.7-1.3,1.4-2,2.09q-1.68,1.78-3.33,3.6C415.05,98,414.5,98.5,414,99a16.46,16.46,0,0,1-1.83,1.37,4.53,4.53,0,0,1-2.37.72,2.33,2.33,0,0,1-2.19-1.46,3.47,3.47,0,0,1-.55-1.5c-.06-.52-.12-1.05-.18-1.6a35.33,35.33,0,0,1,.36-5.11c.25-1.64.55-3.28.91-4.92a9.54,9.54,0,0,0,.28-1.19,10.82,10.82,0,0,1,.27-1.18q1-4.2,2.19-8.13t2.46-7.38l-8.11.64-2.1.18-2.1.18-3.28.36-3.2.37-3.14.36-3.15.37a1.64,1.64,0,0,1-1-.14,1,1,0,0,1-.45-1,.66.66,0,0,1,.45-.64c.31-.12.52-.21.64-.27H388c.91-.12,1.83-.23,2.74-.32s1.83-.2,2.74-.32l3.24-.36,3.14-.37c.86-.12,1.67-.21,2.47-.27l2.46-.18c1-.13,2.05-.22,3.06-.28s2-.15,3.05-.27h.73l2.47-.18c1.39-3.47,2.66-6.39,3.78-8.76s1.87-3.89,2.23-4.56a.3.3,0,0,1,.1-.19.26.26,0,0,1,.09-.18v-.09c.55-1,1.08-1.93,1.6-2.87a25,25,0,0,1,1.77-2.79,2,2,0,0,0,.32-.4,2.73,2.73,0,0,1,.32-.42,1,1,0,0,1,1.28-.18.87.87,0,0,1,.55,1.19c-.06.3-.12.56-.18.77a5.89,5.89,0,0,1-.28.69q-1.1,2.1-2.19,4.1l-2.19,4a84.56,84.56,0,0,0-4.38,9,.26.26,0,0,0-.09.18.26.26,0,0,1-.09.18h.73a7.63,7.63,0,0,1,1.37-.09l1.87-.14a12.53,12.53,0,0,0,1.78-.22l3-.19c.94-.06,1.93-.15,3-.27H429A.93.93,0,0,1,430,66.14Z"/><path class="cls-1" d="M447.89,88.86l-8.48,8.48a12.32,12.32,0,0,1-1.05.92c-.4.3-.78.6-1.14.91a2.14,2.14,0,0,1-1.1.27c-1,0-1.46-.55-1.46-1.64a14.6,14.6,0,0,1,.27-2.83c.19-.91.37-1.81.55-2.69s.4-1.75.64-2.6l1.44-5.25h2.06c-.18.61-.36,1.22-.53,1.83-.76,2.64-1.42,5.33-2,8.07-.12.49-.22.93-.28,1.33s-.12.83-.18,1.32h.09a1.33,1.33,0,0,1,.28-.23,1.35,1.35,0,0,0,.27-.23c.54-.54,1.1-1.08,1.64-1.6s1.06-1,1.55-1.59c1.52-1.52,3-3,4.51-4.47s3-3,4.52-4.47a5.47,5.47,0,0,1,.91-.73.78.78,0,0,1,.55-.27.74.74,0,0,1,.59.36,1.1,1.1,0,0,1,.14.55,3.1,3.1,0,0,1-.09.73l-3.37,3.46Z"/><path class="cls-1" d="M455.12,92.7l.13-.13,0,.13Zm-8,8.73.32-2.46a.44.44,0,0,1-.18-.26c-.06,0-.09-.09-.09-.28a2.84,2.84,0,0,0-.05-.5,2.67,2.67,0,0,1,.05-.77v-.45a2.91,2.91,0,0,1,0-.46,3,3,0,0,0,0-.46c.12-.67.28-1.33.46-2s.39-1.71.6-2.39a23,23,0,0,1,1.86-4.33,8.27,8.27,0,0,1,1.62-2,3.44,3.44,0,0,1,1.08-.63,1.07,1.07,0,0,1,.64,0,.42.42,0,0,1,.24.25c0,.1,0,.35.1.35a12.42,12.42,0,0,0,2.08-.3,2.11,2.11,0,0,0-1.2-2,3,3,0,0,0-2.55-.19,6.29,6.29,0,0,0-2,1.28,6.48,6.48,0,0,0-1,1.37,21.56,21.56,0,0,0-2.24,3.88,28.87,28.87,0,0,0-1.41,4.24,17.82,17.82,0,0,0-.55,2.59,9.51,9.51,0,0,0,0,2.61,2.91,2.91,0,0,0,.18.82,2.63,2.63,0,0,0,1.37,1.91A1.81,1.81,0,0,0,447.11,101.43Z"/><path class="cls-1" d="M439.78,82.38h.09a3.89,3.89,0,0,0,.28-.35,3.89,3.89,0,0,1,.28-.35q2.43-3.27,4.72-6.57c3.84-5.53,6-8,8.06-14.5a24.37,24.37,0,0,0,.82-3.32,9.54,9.54,0,0,0,.16-3.1,3.7,3.7,0,0,0-.21-.9l-.29-.89c-.1-.31-.39-.37-.85-.16a2.55,2.55,0,0,0-.34.19,5.34,5.34,0,0,0-1.19,1.08,10.72,10.72,0,0,0-1.06,1.07,31.57,31.57,0,0,0-2.2,3.65c-3.25,6.25-3.74,8.45-5.83,15.15-.61,1.94-.92,3.44-1.54,5.36-.17.55-.32,1.67-.44,2.16s-.28,1-.46,1.48Zm-3.39,4.86c.1-.1,0-.35.09-.46a.39.39,0,0,0,.14-.33c1.57-6.25,2.95-11.52,4.72-16.93a73.19,73.19,0,0,1,3.83-10.06c.83-1.67,1.74-3.34,2.77-5,.4-.64.83-1.21,1.25-1.76a9,9,0,0,1,1.54-1.55,7.61,7.61,0,0,1,1-.73,3,3,0,0,1,2.16-.37,2.41,2.41,0,0,1,1.62,1.2,5.47,5.47,0,0,1,.71,2.73,22,22,0,0,1-.24,3.91c-1.34,8.24-6.25,13.89-10.83,20.52-1,1.49-2.11,2.95-3.21,4.39s-2.14,2.82-3.21,4.27Z"/><path class="cls-1" d="M439.72,84.08l-2.15-1.27-.15.71c-.08.37-.17.73-.26,1.1s-.25.9-.39,1.35-.29.93-.45,1.38a0,0,0,0,0,0,0l0,0,0,0c-.13.24-.27.48-.41.71s-.28.48-.43.72l-.43.68-.45.67c-.15.23-.32.46-.47.66s-.34.45-.53.67-.39.43-.61.64-.45.4-.7.59a4.07,4.07,0,0,1-1,.55h0l-.2.09-.26.13-.35.18a.26.26,0,0,1-.35-.1.14.14,0,0,1,0-.07l-.1-.37c0-.14-.06-.31-.08-.47s0-.32-.05-.47a3.6,3.6,0,0,0,0-.36.78.78,0,0,0,0-.21v0l0-.09V88.78a1.42,1.42,0,0,0-.17-.74s0,0,0,0a.69.69,0,0,0-.22-.23,1.08,1.08,0,0,0-.34-.17,1.42,1.42,0,0,0-.42-.1,1.2,1.2,0,0,0-.38,0,1.45,1.45,0,0,0-.37.12,3,3,0,0,0-.35.23l-.17.16-.18.16-.17.15-.18.14-.13.13-.17.19h0c-.09.11-.18.22-.27.31h0l-.1.09-.58.6a5.76,5.76,0,0,0-.48.56c-.17.22-.31.38-.43.52l-.42.43-.06.06,0,0-.48.48-.49.49-.41.41a.27.27,0,0,1-.37,0,.25.25,0,0,1-.08-.16l-.09-.56a5,5,0,0,1-.06-.57,5.86,5.86,0,0,1,0-.59,4.63,4.63,0,0,1,.09-.62c0-.2.08-.41.13-.63l.18-.62c.07-.22.13-.42.2-.6s.14-.39.22-.58.16-.37.25-.56.17-.36.26-.53.19-.34.29-.51.2-.32.31-.48.22-.3.34-.44.24-.29.34-.41.23-.23.34-.32a2.11,2.11,0,0,1,.35-.26,2,2,0,0,1,.36-.17l.4-.13a.25.25,0,0,1,.32.16.29.29,0,0,1,0,.09h0v.41a1,1,0,0,0,0,.18.88.88,0,0,0,0,.16l0,.12a.3.3,0,0,0,0,.1.14.14,0,0,1,0,.06l0,.13a.13.13,0,0,1,0,.06.58.58,0,0,0,0,.21.19.19,0,0,0,.05.09.48.48,0,0,0,.16.07,1.41,1.41,0,0,0,.33,0h.09a.83.83,0,0,0,.27,0,.58.58,0,0,0,.21-.06.7.7,0,0,0,.19-.16,1.52,1.52,0,0,0,.19-.28v0a2.07,2.07,0,0,0,.2-.46,2.19,2.19,0,0,0,.09-.5,3.54,3.54,0,0,0,0-.56,3.29,3.29,0,0,0-.15-.6,3,3,0,0,0-.25-.57,2.46,2.46,0,0,0-.3-.4h0s0,0,0,0a1.48,1.48,0,0,0-.35-.25,1.5,1.5,0,0,0-.42-.15,2.78,2.78,0,0,0-.8-.06,2.83,2.83,0,0,0-.76.14,3.78,3.78,0,0,0-.74.34,5.41,5.41,0,0,0-.72.52c-.27.23-.52.46-.76.68s-.46.46-.66.69-.39.47-.56.71a6.81,6.81,0,0,0-.45.73c-.15.26-.28.53-.41.79s-.24.53-.35.81-.22.56-.32.84-.2.58-.29.85h0a7.94,7.94,0,0,0-.26,1.07c-.05.36-.08.72-.1,1.09a8.47,8.47,0,0,0,.05,1.12,9.53,9.53,0,0,0,.17,1.14,3.49,3.49,0,0,0,.17.62,3.07,3.07,0,0,0,.58.93,3.12,3.12,0,0,0,.4.32,1.72,1.72,0,0,0,.42.18,1.45,1.45,0,0,0,.47,0,2,2,0,0,0,.56-.12,3,3,0,0,0,.62-.27l.43-.3.4-.3c.12-.09.23-.2.36-.31s.22-.2.32-.3h0l.25-.24.23-.22.23-.2a2.59,2.59,0,0,1,.23-.19l.16-.14.2-.2a0,0,0,0,1,0,0l.2-.22.21-.28a9.34,9.34,0,0,0,.81-.88c0,.48.11.75.11,1.13l.1.08v.33c0,.09,0,.17,0,.23a.64.64,0,0,0,0,.09l.07.14,0,.07a5.58,5.58,0,0,0,.18.68,3.3,3.3,0,0,0,.26.57,2.56,2.56,0,0,0,.33.46,2.34,2.34,0,0,0,.39.38,2.21,2.21,0,0,0,.44.26,2,2,0,0,0,.47.15,1.91,1.91,0,0,0,.54,0,3.26,3.26,0,0,0,.6-.07c.24,0,.46-.12.66-.18a4.55,4.55,0,0,0,.53-.2l.42-.23.35-.24.3-.22.26-.19c.32-.23.63-.45.91-.69a5.36,5.36,0,0,0,.78-.71c.17-.17.33-.35.48-.52l.47-.56q.25-.3.48-.6c.17-.21.32-.4.46-.59.23-.37.45-.73.66-1.1s.4-.74.57-1.11a12.17,12.17,0,0,0,.48-1.12c.15-.38.29-.75.4-1.12a11.35,11.35,0,0,1,.38-1.08h0A4.55,4.55,0,0,0,439.72,84.08Z"/><path class="cls-1" d="M452.19,96.42c-.17.2-.34.41-.52.6s-.37.4-.58.6-.42.38-.65.56a8.21,8.21,0,0,1-.75.51,3.84,3.84,0,0,1-1,.43h0l-.2.06-.28.1-.35.14a.27.27,0,0,1-.34-.15.14.14,0,0,1,0-.06l-.07-.39c0-.15-.11-.31-.12-.47s-.08-.27-.09-.42v-.36a.88.88,0,0,0,0-.22v-.14a0,0,0,0,1,0,0L447,95.66l-2.15,1.55a2.17,2.17,0,0,1,0,.51l.1.1c0,.13,0,.23,0,.32a1.55,1.55,0,0,0,0,.23s0,.08,0,.1l.06.14a.41.41,0,0,1,0,.08,3.78,3.78,0,0,0,.13.7,3.84,3.84,0,0,0,.2.6,3.1,3.1,0,0,0,.29.5,3.62,3.62,0,0,0,.36.42,2.4,2.4,0,0,0,.41.32,2.67,2.67,0,0,0,.46.2,2.38,2.38,0,0,0,.53.11h.6a6.14,6.14,0,0,0,.68-.1c.2,0,.37-.09.54-.14a3.48,3.48,0,0,0,.43-.18c.14-.06.26-.13.37-.19l.32-.19.27-.16c.33-.18.66-.38,1-.57a6.58,6.58,0,0,0,.83-.61l.51-.47.52-.5C454.94,97.57,453,95.83,452.19,96.42Z"/><path class="cls-1" d="M452.55,96a1.22,1.22,0,0,1,.81-.38,1,1,0,0,1,.76.32,2,2,0,0,1,.46.8.77.77,0,0,1-.24.82l-.74.81c-2.07,2.26-3.59.57-1.7-1.62Z"/><path class="cls-1" d="M453.73,84.47c0,.12,0,.24,0,.36s0,.38,0,.57,0,.4,0,.61-.05.4-.08.6-.06.39-.09.57-.07.37-.12.56-.09.36-.14.55-.11.36-.17.53a5.27,5.27,0,0,1-.19.51c-.07.16-.14.32-.22.48a7.8,7.8,0,0,1-.5.87A3.35,3.35,0,0,1,452,91a1.85,1.85,0,0,1-.28.28,1.41,1.41,0,0,1-.31.21l-.34.18a.26.26,0,0,1-.33-.11.12.12,0,0,1,0-.08h0l-.06-.38c0-.07,0-.12,0-.17s0-.08,0-.13a1.17,1.17,0,0,0-.05-.11l0-.09,0-.05-.05-.12a.17.17,0,0,0,0,0,.74.74,0,0,0-.05-.19.16.16,0,0,0-.07-.07.37.37,0,0,0-.15,0,1.6,1.6,0,0,0-.3,0h-.09a.9.9,0,0,0-.25,0,.51.51,0,0,0-.18.09.66.66,0,0,0-.16.17,1.47,1.47,0,0,0-.12.28h0v0a2.09,2.09,0,0,0-.12.46,2.46,2.46,0,0,0,0,.47,2.33,2.33,0,0,0,.11.51,4.08,4.08,0,0,0,.22.54,3.62,3.62,0,0,0,.31.48,2.57,2.57,0,0,0,.33.33h0a1.39,1.39,0,0,0,.36.19,1.42,1.42,0,0,0,.42.08,3.54,3.54,0,0,0,.74-.05,2.68,2.68,0,0,0,.67-.24,3.09,3.09,0,0,0,.63-.41,5.23,5.23,0,0,0,.59-.57c.21-.25.41-.49.59-.74a8,8,0,0,0,.51-.72c.15-.24.29-.48.41-.72a6.66,6.66,0,0,0,.31-.73c.1-.27.18-.53.26-.78s.14-.52.21-.8.12-.54.17-.82.09-.56.13-.82h0a5.66,5.66,0,0,0,.09-1,7,7,0,0,0-.07-1C455.16,83.38,455.23,83.71,453.73,84.47Z"/><path class="cls-1" d="M304,82.89a1,1,0,0,1,.46,1.1c-.12.3-.23.61-.32.91s-.2.61-.32.92a75.06,75.06,0,0,0-2.92,7.07c-.85,2.4-1.67,4.84-2.46,7.34-.3.85-.56,1.72-.78,2.6s-.44,1.75-.68,2.6a1.6,1.6,0,0,0-.09.64,1,1,0,0,1-.27.73.79.79,0,0,1-.74.18.91.91,0,0,1-.73-.32.87.87,0,0,1-.18-.77c.06-.49.12-1,.18-1.37a9.43,9.43,0,0,1,.28-1.28q1.74-6.39,4.1-12.59c.18-.49.38-1,.6-1.51s.41-1,.59-1.5v-.19a2.19,2.19,0,0,1-.46.55c-1,1.34-1.95,2.65-2.92,3.93s-1.94,2.58-2.91,3.92c-.37.49-.72.94-1.06,1.37s-.65.85-1,1.28l-.54.54a5.2,5.2,0,0,1-.64.55,1.21,1.21,0,0,1-1.46.09,1.1,1.1,0,0,1-.73-1.27v-.88a2.16,2.16,0,0,1,.19-.86c.3-1.34.65-2.61,1-3.83s.84-2.43,1.33-3.65a1,1,0,0,0,.09-.46,11.49,11.49,0,0,0-.83.92,11,11,0,0,1-.81.91c-1,1.21-1.92,2.4-2.84,3.56s-1.85,2.34-2.82,3.55a2.15,2.15,0,0,1-.73.74,1.26,1.26,0,0,1-1.37.27,1.8,1.8,0,0,1-.5-.55.87.87,0,0,1-.05-.82V97l1.64-5.57c.43-1.4.86-2.76,1.28-4.06s.88-2.63,1.37-4a1,1,0,0,1,1.28-.64A.85.85,0,0,1,288,83.9l-2.19,6.29-1.19,3.74V94q.18-.18.18-.27l3.29-3.83q1.65-1.92,3.37-3.83a1.56,1.56,0,0,1,.55-.59l.64-.42a1.19,1.19,0,0,1,1.46.1,1.17,1.17,0,0,1,.54,1.36c-.12.37-.22.73-.31,1.1a7.84,7.84,0,0,1-.32,1l-1.92,5.2a9.45,9.45,0,0,0-.32,1,9.48,9.48,0,0,1-.32,1.14.73.73,0,0,0-.09.46h.09l1.37-1.92c1.1-1.46,2.16-2.92,3.2-4.38a53.58,53.58,0,0,1,3.37-4.28c.42-.49.84-.93,1.24-1.33l1.23-1.23a2.08,2.08,0,0,1,.4-.32c.16-.09.32-.2.51-.32A1.16,1.16,0,0,1,304,82.89Z"/><path class="cls-1" d="M337.79,75.51a.76.76,0,0,1-.78-.28,1.25,1.25,0,0,1-.31-.82c0-.61.33-.91,1-.91s.91.33.91,1a.76.76,0,0,1-.18.73.88.88,0,0,1-.64.28Zm8.94,8.3a.77.77,0,0,1,.73-.28,1.48,1.48,0,0,1,.64.37,1.06,1.06,0,0,1,.32.64.91.91,0,0,1-.32.73l-1,1c-.37.36-.7.73-1,1.09-.85.86-1.68,1.72-2.51,2.6s-1.65,1.75-2.51,2.61l-.27.27-.68.68c-.21.22-.41.44-.6.68l-2.14,2.15a23.24,23.24,0,0,1-2.33,2.06c-.06.06-.1.09-.13.09a.26.26,0,0,0-.14.09,1.79,1.79,0,0,1-.64.45c-1,.73-1.81,1-2.32.91a1.73,1.73,0,0,1-1.05-.54,1.58,1.58,0,0,1-.46-.82,6.58,6.58,0,0,1-.14-1.65,10.43,10.43,0,0,1,.23-1.64,7,7,0,0,1,.28-1c.11-.37.19-1,.43-1.81s.46-1.67.89-3,1.15-3.27,2-5.5a1,1,0,0,1,1.37-.64c.54.18.7.67.45,1.46-.3,1-.63,2-1,2.92s-.7,2-1,2.92c-.19.61-.37,1.22-.55,1.83s-.37,1.24-.55,1.91-.23,1.16-.32,1.82a7.59,7.59,0,0,0,0,1.83c.3-.19.73-.49,1.27-.91s1.07-.86,1.74-1.46,1.49-1.43,2.46-2.47l2.28-2.37c1.1-1.21,2.2-2.39,3.33-3.51S345.64,85,346.73,83.81Z"/><path class="cls-1" d="M367.8,83.63a.83.83,0,0,1,.46.63,1,1,0,0,1-.09.73c-.49.67-1,1.36-1.55,2.06s-1,1.42-1.55,2l-8.93,10.4-1.43,1.65c-.18.21-.73.69-.94.91l-.89,1a1.52,1.52,0,0,1-2,.21c-1.32-.83-1-1.65-.92-2.71a15.25,15.25,0,0,1,.26-1.7A31.91,31.91,0,0,1,352,93.2l2.47-6.56.17-.37c-.11.12-.19.18-.22.18s-.07,0-.14.09a67.45,67.45,0,0,0-4.51,5c-1.43,1.76-2.78,3.62-4.06,5.56a3.64,3.64,0,0,1-.64.92,1.3,1.3,0,0,1-1.64.27,1.25,1.25,0,0,1-.64-1.46c.18-.67.35-1.35.5-2a16,16,0,0,1,.59-2c.49-1.4,1-2.82,1.42-4.25s.92-2.84,1.41-4.24c.13-.24.23-.44.32-.59a1.19,1.19,0,0,1,.59-.41.92.92,0,0,1,1,.27,1.35,1.35,0,0,1,.28,1c-.18.55-.38,1.09-.59,1.64a11.52,11.52,0,0,0-.5,1.55c-.25.67-.46,1.34-.64,2s-.4,1.33-.64,2a.17.17,0,0,1-.05.13.38.38,0,0,0,0,.23c.42-.49.8-1,1.14-1.42s.71-.92,1.14-1.41c1.64-1.82,3.38-3.65,5.2-5.47a2.18,2.18,0,0,1,.5-.51,4.18,4.18,0,0,1,.68-.4,1.49,1.49,0,0,1,1.6,0,1.37,1.37,0,0,1,.68,1.45,4.16,4.16,0,0,1-.18,1.23c-.12.4-.24.78-.36,1.15-.43,1.21-.87,2.42-1.32,3.6s-1.14,2.61-1.49,3.88a63.31,63.31,0,0,0-1.84,6.14l.1.09c.24-.37.8-.75,1.05-1.08s.53-.77.81-1.09l2.61-3,8.47-9.62,1.37-1.73A1,1,0,0,1,367.8,83.63Z"/><path class="cls-1" d="M370.45,75.51a.75.75,0,0,1-.77-.28,1.16,1.16,0,0,1-.32-.82c0-.61.33-.91,1-.91s.91.33.91,1a.76.76,0,0,1-.18.73.9.9,0,0,1-.64.28Zm8.94,8.3a.77.77,0,0,1,.73-.28,1.42,1.42,0,0,1,.64.37,1.06,1.06,0,0,1,.32.64.88.88,0,0,1-.32.73c-.31.3-.64.64-1,1s-.7.73-1,1.09c-.85.86-1.69,1.72-2.51,2.6s-1.65,1.75-2.51,2.61l-.27.27-.68.68a7.68,7.68,0,0,0-.6.68L370,96.35a24.4,24.4,0,0,1-2.33,2.06c-.06.06-.1.09-.14.09a.29.29,0,0,0-.13.09,1.71,1.71,0,0,1-.64.45c-1,.73-1.81,1-2.32.91a1.73,1.73,0,0,1-1.05-.54,1.66,1.66,0,0,1-.46-.82,6.14,6.14,0,0,1-.14-1.65,10.43,10.43,0,0,1,.23-1.64c.4-1.9,1-4,1.6-5.82.43-1.33,1.15-3.26,2-5.49a1,1,0,0,1,1.37-.64c.55.18.7.67.46,1.46-.31,1-.64,2-1,2.92s-.7,2-1,2.92c-.18.61-.37,1.22-.55,1.83s-.37,1.24-.55,1.91-.23,1.16-.32,1.82A7.11,7.11,0,0,0,365,98c.3-.19.73-.49,1.28-.91s1.06-.86,1.73-1.46,1.49-1.43,2.46-2.47l2.28-2.37c1.09-1.21,2.2-2.39,3.33-3.51S378.3,85,379.39,83.81Z"/><path class="cls-1" d="M383.22,75.51a.75.75,0,0,1-.77-.28,1.16,1.16,0,0,1-.32-.82c0-.61.33-.91,1-.91s.91.33.91,1a.76.76,0,0,1-.18.73.88.88,0,0,1-.64.28ZM377,99.87a1.46,1.46,0,0,1-.75-.46,1.66,1.66,0,0,1-.46-.82,6.58,6.58,0,0,1-.14-1.65,24.87,24.87,0,0,1,.83-4.49c.25-.79.53-1.63.95-3s1.21-3.26,2-5.49a1,1,0,0,1,1.37-.64c.55.18.7.67.46,1.46-.31,1-.64,2-1,2.92s-.7,2-1,2.92c-.18.61-.37,1.22-.55,1.83s-.36,1.24-.55,1.91-.22,1.16-.31,1.82a9.08,9.08,0,0,0-.13,2l.06,0Z"/><path class="cls-1" d="M323.64,91.38l-.7.24a10,10,0,0,1-1.32.3,3.43,3.43,0,0,1-1.4,0c-.76-.19-.83-.78-1.1-.89a2.57,2.57,0,0,1-.18-1.68,8.5,8.5,0,0,1,.45-1.48,14.82,14.82,0,0,1,.7-1.37,16.63,16.63,0,0,1,3.46-4.94,12.63,12.63,0,0,1,3-2.2,3.11,3.11,0,0,1,3.08-.2c.73.52.9,1.39.54,2.59a4.94,4.94,0,0,1-.42,1c-.2.34-.33.68-.51,1a.92.92,0,0,1-1.2.46.75.75,0,0,1-.48-1.06l.47-1a4.22,4.22,0,0,0,.34-.93c.16-.36.09-.43-.25-.32s-.75.25-1,.36c-1.93.86-4,3.81-4.93,5.6-.07.11-.17.31-.32.56a5.13,5.13,0,0,0-.4.85,9.18,9.18,0,0,0-.28.9.78.78,0,0,0,0,.6c.16.21.49.22,1,0s.93-.38,1.34-.56C326.17,88,327.26,89.77,323.64,91.38Z"/><path class="cls-1" d="M323.41,89.16a5.73,5.73,0,0,1,.66-.22,7.76,7.76,0,0,1,1.27-.28,3.86,3.86,0,0,1,1.4,0,1.88,1.88,0,0,1,1.15.79l.08,0a2.47,2.47,0,0,1,.45,1.55,7,7,0,0,1-.23,1.35,6.5,6.5,0,0,1-.48,1.26,14.68,14.68,0,0,1-1.58,2.85s-.37.49-1.05,1.32a18.61,18.61,0,0,1-2.47,2.48,15.86,15.86,0,0,1-3.05,2,2.82,2.82,0,0,1-2.82.08,2.09,2.09,0,0,1-.93-2.38,3,3,0,0,1,.27-.91c.14-.32.26-.62.36-.89a.86.86,0,0,1,1.12-.42.88.88,0,0,1,.64,1l-.31.9a2.77,2.77,0,0,0-.2.86c-.12.33,0,.42.29.29a6.35,6.35,0,0,0,1-.29,6.62,6.62,0,0,0,1.61-1c.46-.38.94-.83,1.44-1.32a18.9,18.9,0,0,0,3.56-4.9,4.43,4.43,0,0,1,.22-.52,3,3,0,0,0,.27-.78,6.32,6.32,0,0,0,.15-.83.63.63,0,0,0-.11-.54c-.19-.2-.51-.21-1,0l-1.26.52C321.61,92.17,320.43,90.46,323.41,89.16Z"/><path class="cls-1" d="M321.54,103.74a1,1,0,0,1,.18.76,1.73,1.73,0,0,1-.09.4,2.59,2.59,0,0,0-.1.4,16.79,16.79,0,0,1-1,1.84,3.13,3.13,0,0,1-.94.9,1.09,1.09,0,0,1-1.11.13.65.65,0,0,1-.38-.69.74.74,0,0,0,.13-.31.72.72,0,0,1,.12-.3,6,6,0,0,0,1.07-1.55,7.26,7.26,0,0,0,.34-.88,1.14,1.14,0,0,1,.83-.81C321.08,103.5,321.38,103.54,321.54,103.74Z"/><path class="cls-1" d="M337.48,75.86a1.2,1.2,0,0,1-1.2-.43,1.85,1.85,0,0,1-.49-1.26c0-.94.52-1.41,1.55-1.4s1.4.52,1.4,1.55a1.17,1.17,0,0,1-.28,1.12A1.35,1.35,0,0,1,337.48,75.86Z"/><path class="cls-1" d="M370,76a1.2,1.2,0,0,1-1.2-.43,1.91,1.91,0,0,1-.49-1.27c0-.93.52-1.4,1.55-1.4s1.4.52,1.4,1.56a1.15,1.15,0,0,1-.28,1.12A1.33,1.33,0,0,1,370,76Z"/><path class="cls-1" d="M382.91,76a1.2,1.2,0,0,1-1.2-.43,1.92,1.92,0,0,1-.48-1.27c0-.94.51-1.4,1.54-1.39s1.4.51,1.4,1.55a1.15,1.15,0,0,1-.28,1.12A1.32,1.32,0,0,1,382.91,76Z"/><path class="cls-1" d="M383.79,94.13l-.14.18c-.14.21-.3.41-.45.61s-.31.4-.47.58-.31.39-.47.57-.33.38-.5.57-.35.37-.54.55a7.75,7.75,0,0,1-.62.52,6.45,6.45,0,0,1-.69.47,3.31,3.31,0,0,1-.93.41l0,0-.2.06-.25.09-.29,0a.23.23,0,0,1-.31-.13.14.14,0,0,1,0-.06l0,0-.06-.27c0-.14-.09-.24-.1-.39s-.08-.29-.08-.44v-.32a.88.88,0,0,0,0-.2v-.16l.11-1.38L376,94.2c0,.07-.2,1.12-.29,1.7-.12.75-.15,1-.16,1a4.34,4.34,0,0,0-.05,1.29,2,2,0,0,0,.14.77,2.54,2.54,0,0,0,.2.53,2.4,2.4,0,0,0,.27.47,2.3,2.3,0,0,0,.33.37c.12.12.31.15.44.23a2.58,2.58,0,0,0,.42.13,2.27,2.27,0,0,0,.48.09,3.41,3.41,0,0,0,.55,0l.63-.1a5.07,5.07,0,0,0,.5-.14,3,3,0,0,0,.4-.16,2.89,2.89,0,0,0,.35-.19l.3-.17.25-.15c.31-.18.62-.36.9-.54a6.82,6.82,0,0,0,.78-.57c.17-.15.33-.29.48-.44s.32-.29.49-.47.33-.32.49-.49.34-.34.48-.5c.25-.31.49-.63.71-.94l.41-.61Z"/><path class="cls-1" d="M383.78,94.14a1.19,1.19,0,0,1,.69-.44.86.86,0,0,1,.71.2,1.68,1.68,0,0,1,.51.66.71.71,0,0,1-.11.77l-.57.81c-1.58,2.27-3.15.94-1.71-1.25Z"/><path class="cls-1" d="M318.32,90l-.14.21-.48.67-.53.66c-.19.22-.39.43-.61.64s-.45.4-.7.59a4.27,4.27,0,0,1-.95.55h0l-.2.09-.26.13-.34.18a.26.26,0,0,1-.35-.1.21.21,0,0,1,0-.07l-.09-.37a3.55,3.55,0,0,1-.09-.47c0-.16,0-.32-.05-.47s0-.25,0-.35l0-.22,0,0v-.09s0,0,0,0V88.78a1.42,1.42,0,0,0-.17-.74l0,0a.69.69,0,0,0-.22-.23,1.08,1.08,0,0,0-.34-.17,1.29,1.29,0,0,0-.41-.1,1.18,1.18,0,0,0-.38,0,1.23,1.23,0,0,0-.37.12,2.31,2.31,0,0,0-.37.24l-.15.15-.18.16a2,2,0,0,1-.18.15l-.18.14a.79.79,0,0,0-.13.13l-.17.19h0l-.28.31h0l-.1.09c-.19.2-.39.4-.57.6a4.78,4.78,0,0,0-.49.56c-.16.22-.3.38-.43.53s-.27.27-.42.42l0,.06,0,0-.49.48-.48.49-.42.41a.27.27,0,0,1-.37,0,.24.24,0,0,1-.07-.16l-.09-.56a5,5,0,0,1-.06-.57,3.9,3.9,0,0,1,0-.59c0-.2,0-.41.07-.61s.09-.42.15-.64.11-.42.17-.63l.2-.59c.07-.19.15-.38.22-.58s.16-.37.25-.56.17-.36.26-.53.19-.34.29-.51.2-.32.32-.48.21-.3.33-.45a5,5,0,0,1,.35-.4,3.27,3.27,0,0,1,.33-.32,2.11,2.11,0,0,1,.35-.26,1.47,1.47,0,0,1,.36-.17l.4-.13a.26.26,0,0,1,.33.17.19.19,0,0,1,0,.08v.41a2.14,2.14,0,0,0,0,.34l0,.12a1,1,0,0,0,0,.1l0,.06,0,.13a.13.13,0,0,1,0,.06.62.62,0,0,0,0,.21.2.2,0,0,0,.06.09.27.27,0,0,0,.16.07,1,1,0,0,0,.32,0h.09a1.3,1.3,0,0,0,.28,0,.51.51,0,0,0,.21-.06.86.86,0,0,0,.18-.16,1.52,1.52,0,0,0,.19-.28h0v0A2.42,2.42,0,0,0,312,85a2.74,2.74,0,0,0,.08-.5,2.67,2.67,0,0,0,0-.56c0-.07,0-.15-.05-.23h0c0-.12-.06-.23-.1-.36a3.17,3.17,0,0,0-.25-.56,2.06,2.06,0,0,0-.29-.4l0,0h0a1.4,1.4,0,0,0-.35-.25,1.46,1.46,0,0,0-.43-.15,2.75,2.75,0,0,0-.8-.06A2.83,2.83,0,0,0,309,82a4.46,4.46,0,0,0-.74.34,4.64,4.64,0,0,0-.72.52c-.26.23-.52.45-.76.68s-.45.46-.66.7-.38.46-.55.7a8.09,8.09,0,0,0-.46.73c-.15.27-.28.53-.4.79s-.24.53-.36.81-.22.56-.32.84l-.29.85h0a7.77,7.77,0,0,0-.25,1.06,6.82,6.82,0,0,0-.1,1.1,8.45,8.45,0,0,0,0,1.12c0,.37.09.75.17,1.14a3.48,3.48,0,0,0,.18.62,3.58,3.58,0,0,0,.25.52,3.3,3.3,0,0,0,.32.4,2.41,2.41,0,0,0,.4.33,1.48,1.48,0,0,0,.42.17,1.24,1.24,0,0,0,.47,0,2.31,2.31,0,0,0,.56-.11,3.81,3.81,0,0,0,.63-.28l.43-.3.39-.3c.12-.09.24-.2.36-.31s.22-.19.33-.3.15-.15.24-.24.16-.16.24-.22l.22-.2.23-.19.17-.14.19-.2,0,0,.19-.22.22-.29a8.05,8.05,0,0,0,.8-.87c0,.48.11.76.11,1.13l.1.08a3.22,3.22,0,0,0,0,.33,1.52,1.52,0,0,0,0,.23.51.51,0,0,1,0,.09l.08.14a.19.19,0,0,1,0,.07,4.5,4.5,0,0,0,.19.68,3.27,3.27,0,0,0,.25.57,3.17,3.17,0,0,0,.33.46,2.05,2.05,0,0,0,.4.38,2.34,2.34,0,0,0,.43.26,2,2,0,0,0,.47.15,2.41,2.41,0,0,0,.54,0,2.61,2.61,0,0,0,.6-.08,4,4,0,0,0,.66-.17,4.55,4.55,0,0,0,.53-.2,3.3,3.3,0,0,0,.42-.23,3.53,3.53,0,0,0,.35-.24l.31-.22.25-.19c.32-.23.63-.46.92-.69a5.94,5.94,0,0,0,.78-.71l.47-.52.48-.57.48-.58a2.35,2.35,0,0,1,.19-.25Z"/><path class="cls-1" d="M318.79,89.32a1.27,1.27,0,0,1,.73-.47.89.89,0,0,1,.76.21,1.81,1.81,0,0,1,.55.7.74.74,0,0,1-.13.82l-.6.86c-1.69,2.43-3.35,1-1.82-1.33Z"/><path class="cls-1" d="M218.62,82.89a1,1,0,0,1,.46,1.1,8.23,8.23,0,0,0-.32.91c-.09.31-.2.61-.32.92-1.09,2.31-2.06,4.66-2.92,7.07s-1.67,4.84-2.46,7.34a23.55,23.55,0,0,0-.78,2.6c-.21.88-.44,1.75-.68,2.6a1.6,1.6,0,0,0-.09.64,1,1,0,0,1-.28.73.76.76,0,0,1-.73.18.91.91,0,0,1-.73-.32.87.87,0,0,1-.18-.77c.06-.49.12-1,.18-1.37a9.43,9.43,0,0,1,.28-1.28,130.2,130.2,0,0,1,4.1-12.59c.18-.49.38-1,.59-1.51s.41-1,.6-1.5v-.19a2.44,2.44,0,0,1-.46.55q-1.45,2-2.92,3.93t-2.91,3.92c-.37.49-.72.94-1.06,1.37s-.65.85-1,1.28l-.54.54a6.07,6.07,0,0,1-.64.55,1.21,1.21,0,0,1-1.46.09,1.09,1.09,0,0,1-.73-1.27v-.88a2.33,2.33,0,0,1,.18-.86c.31-1.34.66-2.61,1-3.83s.84-2.43,1.33-3.65a1.17,1.17,0,0,0,.09-.46,11.49,11.49,0,0,0-.83.92,11,11,0,0,1-.81.91q-1.47,1.81-2.83,3.56L199,97.67a2.25,2.25,0,0,1-.73.74,1.26,1.26,0,0,1-1.37.27,1.8,1.8,0,0,1-.5-.55.85.85,0,0,1,0-.82V97L198,91.38c.42-1.4.85-2.76,1.27-4.06s.89-2.63,1.37-4a1,1,0,0,1,1.28-.64.85.85,0,0,1,.64,1.19l-2.2,6.29-1.18,3.74V94q.18-.18.18-.27c1.1-1.28,2.2-2.55,3.29-3.83s2.22-2.56,3.37-3.83a1.48,1.48,0,0,1,.55-.59l.64-.42a1.37,1.37,0,0,1,2,1.46c-.12.37-.22.73-.31,1.1a9.84,9.84,0,0,1-.32,1l-1.92,5.2a7.71,7.71,0,0,0-.32,1A11.78,11.78,0,0,1,206,96a.73.73,0,0,0-.09.46H206l1.37-1.92q1.65-2.19,3.19-4.38A53.72,53.72,0,0,1,214,85.91c.42-.49.84-.93,1.23-1.33l1.23-1.23a2.15,2.15,0,0,1,.41-.32l.51-.32A1.16,1.16,0,0,1,218.62,82.89Z"/><path class="cls-1" d="M234.46,84.54c.49.43.43.83,0,1.37l-3.83,4.93-2,2.68c-.53.69-1.15,1.37-1.7,2.1a57.78,57.78,0,0,1-4.07,4.34,2.07,2.07,0,0,1-.46.32,1.52,1.52,0,0,0-.45.32,1.77,1.77,0,0,1-2.28-.19,2.52,2.52,0,0,1-.64-1.64,12.67,12.67,0,0,1,0-2.37,21.21,21.21,0,0,1,.41-2.47c.19-.79.37-1.45.55-2,.31-1,1-3.23,1.46-4.26.31-.76.72-1.86,1-2.61.2-.47.33-.58.51-1.07a.7.7,0,0,1,.6-.5,1,1,0,0,1,.68.14.9.9,0,0,1,.36,1.36,43.21,43.21,0,0,0-1.91,5.2l-.09.09c-.31.86-.6,1.78-.87,2.79a24.82,24.82,0,0,0-.59,2.69,10.11,10.11,0,0,0-.14,1c0,.33,0,.68,0,1a.41.41,0,0,0,0,.18.39.39,0,0,1,0,.18c.13.07.3,0,.51-.22a56.14,56.14,0,0,0,4.73-5l3.4-4.17a9.52,9.52,0,0,0,.77-1,9.56,9.56,0,0,1,.78-1c.33-.41.61-.84.91-1.24s.62-.77.91-1.14a.8.8,0,0,1,.73-.32.81.81,0,0,1,.64.32ZM227.38,75a.68.68,0,0,1-.73-.28,1.32,1.32,0,0,1-.27-.82,1,1,0,0,1,.27-.68.82.82,0,0,1,.64-.32,1,1,0,0,1,1,1.09C228.29,74.62,228,75,227.38,75Z"/><path class="cls-1" d="M243.16,89l-8.48,8.48a10.74,10.74,0,0,1-1.05.91c-.4.31-.78.61-1.14.92a2.14,2.14,0,0,1-1.1.27c-1,0-1.45-.55-1.45-1.64a14.6,14.6,0,0,1,.27-2.83c.18-.91.36-1.81.55-2.69s.39-1.75.63-2.6l1.44-5.25h2.06c-.18.61-.35,1.22-.53,1.83-.76,2.64-1.41,5.34-2,8.07-.12.49-.22.93-.28,1.32s-.12.84-.18,1.33H232a.93.93,0,0,1,.28-.23,1.35,1.35,0,0,0,.27-.23c.55-.55,1.1-1.08,1.64-1.6s1.06-1,1.55-1.59q2.28-2.28,4.52-4.47t4.52-4.47a5.57,5.57,0,0,1,.91-.73.76.76,0,0,1,.55-.28.83.83,0,0,1,.59.37,1.23,1.23,0,0,1,.13.55,3,3,0,0,1-.09.72l-3.37,3.47Z"/><path class="cls-1" d="M249.55,75.51a.74.74,0,0,1-.77-.28,1.16,1.16,0,0,1-.32-.82c0-.61.33-.91,1-.91s.91.33.91,1a.74.74,0,0,1-.19.73.86.86,0,0,1-.63.28Zm4.62,15.69c-.44.46-.89.92-1.34,1.37l-.27.27c-.25.24-.47.47-.68.68a6.35,6.35,0,0,0-.6.68c-.67.67-1.38,1.39-2.15,2.15a23.15,23.15,0,0,1-2.32,2.06.26.26,0,0,1-.14.09.36.36,0,0,0-.14.09,1.77,1.77,0,0,1-.63.45c-1,.73-1.81,1-2.32.91a1.76,1.76,0,0,1-1.06-.54,1.64,1.64,0,0,1-.45-.82,6.14,6.14,0,0,1-.14-1.65,9.38,9.38,0,0,1,.23-1.64,8.44,8.44,0,0,1,.27-1c.13-.37.3-.94.55-1.73s.43-1.64.86-3,1.07-3.37,1.88-5.6a1,1,0,0,1,1.37-.64c.54.18.69.67.45,1.46-.3,1-.64,2-1,2.92s-.69,2-1,2.92L245,92.48c-.18.6-.37,1.24-.55,1.91s-.23,1.16-.32,1.82a7.11,7.11,0,0,0,0,1.83c.3-.19.73-.49,1.27-.91s1.06-.86,1.74-1.46,1.49-1.43,2.46-2.47l2.28-2.37c.77-.85,1.55-1.69,2.34-2.5Z"/><path class="cls-1" d="M189,82.78a.74.74,0,0,1-.07.73,1,1,0,0,1-.62.43c-3.65.41-7.36.91-11.09,1.5h-.09a.36.36,0,0,1-.27.07c-.31,0-.5.12-.56.21a.25.25,0,0,1-.18.13,1.59,1.59,0,0,0-.16.4,3.64,3.64,0,0,0-.06.69c0,.61-.05,1.18-.07,1.73s0,1.12,0,1.74a35.91,35.91,0,0,1-1.33,12.27c-.48,1.44-1,2.86-1.52,4.27a26.35,26.35,0,0,1-2,4.08,18,18,0,0,1-1,1.65,6.9,6.9,0,0,1-1.28,1.37,1.93,1.93,0,0,1-1.4.58,1.86,1.86,0,0,1-1.59-1.24,4,4,0,0,1-.36-1.61,10.44,10.44,0,0,1,.1-1.69l0-.34,2.13-.51c-.06.65-.12,1.3-.2,1.93a4.93,4.93,0,0,0,0,.55,4.16,4.16,0,0,1,0,.64,1,1,0,0,1,.28-.22.54.54,0,0,0,.19-.22c.32-.48.62-1,.91-1.42s.6-1,.92-1.43a42.24,42.24,0,0,0,3.56-10.82,21.93,21.93,0,0,0,.43-3.22c.07-1.13.09-2.24.07-3.33q-.06-1.1-.06-2.19c0-.73,0-1.5,0-2.28a5.15,5.15,0,0,1,0-1.37,5.7,5.7,0,0,1,.36-1.08,1.24,1.24,0,0,1,.71-.71,6.2,6.2,0,0,1,1.65-.48l.83-.15c1.78-.24,3.5-.47,5.18-.72s3.41-.48,5.18-.71C188.54,81.91,188.93,82.17,189,82.78Z"/><path class="cls-1" d="M175.21,77.3a13.08,13.08,0,0,0-.46,1.42,11.75,11.75,0,0,1-.46,1.42l.32-.2a19.53,19.53,0,0,0,1.66-1c.52-.38,1.07-.76,1.66-1.15a59.81,59.81,0,0,0,8.3-6.43c4.66-4.47,9.19-12.12,8.82-16.69A4.31,4.31,0,0,0,193.39,52a4,4,0,0,0-2.83-.39,6.5,6.5,0,0,0-1.75.56,11.86,11.86,0,0,0-1.63,1A12.79,12.79,0,0,0,185,55.45a24.17,24.17,0,0,0-3.15,5.36Q179.83,65,178,69.54c-.49,1.32-1,2.62-1.42,3.88s-.91,2.56-1.41,3.88ZM165.77,87a1,1,0,0,1-.17-1,1.91,1.91,0,0,1,.45-.58c.9-.52,1.76-1,2.58-1.6s1.67-1.07,2.58-1.59a1,1,0,0,0,.52-.71q1.5-4.81,3.18-9.51t3.79-9.22a56.41,56.41,0,0,1,5-8.86,10.67,10.67,0,0,1,2.59-2.51,8.29,8.29,0,0,1,4.28-1.7,5.89,5.89,0,0,1,3.61.62,6,6,0,0,1,2.55,2.88c1,2.79-.05,5.72-1.31,8.78a29.52,29.52,0,0,1-4.17,6.88c-3.77,5-7.77,7.81-12.86,11.16-.85.52-1.67,1-2.46,1.55L173.54,83l-.3.36c-.59,2.17-1.2,4.37-1.81,6.59s-1.16,4.47-1.62,6.74q-.66,3-1.16,6t-.89,6c-.08,1-.17,1.92-.25,2.91a11.8,11.8,0,0,0,0,2l-2-2.07c0-.68.09-1.36.17-2q.38-3.37.88-6.68c.34-2.21.77-4.39,1.31-6.55q.67-2.73,1.4-5.51c.48-1.86.94-3.69,1.4-5.52a.12.12,0,0,1,0-.12.37.37,0,0,0,0-.21c-.21.13-.41.26-.59.39l-.6.38-1.27.77-1.27.78a1.33,1.33,0,0,1-.53.12A.73.73,0,0,1,165.77,87Z"/><path class="cls-1" d="M227.56,75.37a1.22,1.22,0,0,1-1.2-.43,1.86,1.86,0,0,1-.49-1.27c0-.94.51-1.4,1.54-1.4s1.41.52,1.41,1.55a1.19,1.19,0,0,1-.28,1.13A1.35,1.35,0,0,1,227.56,75.37Z"/><path class="cls-1" d="M249.51,75.47a1.22,1.22,0,0,1-1.2-.43,1.91,1.91,0,0,1-.49-1.27c0-.94.52-1.4,1.55-1.4s1.4.52,1.4,1.56a1.15,1.15,0,0,1-.28,1.12A1.33,1.33,0,0,1,249.51,75.47Z"/><path class="cls-1" d="M267.9,90l-.14.21-.48.67-.53.66c-.19.22-.39.43-.61.64a8.36,8.36,0,0,1-.7.59,4.27,4.27,0,0,1-.95.55h0l-.2.09-.26.13-.34.18a.26.26,0,0,1-.35-.1.21.21,0,0,1,0-.07l-.09-.37a3.55,3.55,0,0,1-.09-.47c0-.16,0-.32,0-.47a3.09,3.09,0,0,0,0-.35.87.87,0,0,0,0-.22V88.78a1.42,1.42,0,0,0-.18-.74l0,0a.69.69,0,0,0-.22-.23,1.08,1.08,0,0,0-.34-.17,1.36,1.36,0,0,0-.41-.1,1.43,1.43,0,0,0-.75.14,2.31,2.31,0,0,0-.37.24l-.15.15-.18.16a1.19,1.19,0,0,1-.18.15l-.18.14-.13.13-.17.19h0l-.28.31h0l-.1.09-.58.6a5.76,5.76,0,0,0-.48.56c-.17.22-.3.38-.43.53l-.42.42-.05.06,0,0-.49.48-.48.49-.42.41a.27.27,0,0,1-.37,0,.3.3,0,0,1-.08-.16l-.08-.56a3.43,3.43,0,0,1-.06-.57,3.9,3.9,0,0,1,0-.59c0-.2,0-.41.07-.61s.09-.42.15-.64.11-.42.17-.63l.2-.59c.07-.19.14-.38.22-.58s.16-.37.25-.56.17-.36.26-.53.19-.34.29-.51.2-.32.31-.48l.34-.45a5,5,0,0,1,.35-.4,3.27,3.27,0,0,1,.33-.32,2.11,2.11,0,0,1,.35-.26,1.47,1.47,0,0,1,.36-.17l.4-.13a.26.26,0,0,1,.33.17.19.19,0,0,1,0,.08v.41c0,.08,0,.14,0,.19a1,1,0,0,0,0,.15l0,.12a.31.31,0,0,0,.05.1s0,0,0,.06l0,.13s0,0,0,.06a.62.62,0,0,0,0,.21.2.2,0,0,0,.06.09.27.27,0,0,0,.16.07,1,1,0,0,0,.32,0h.09a1.3,1.3,0,0,0,.28,0,.51.51,0,0,0,.21-.06.67.67,0,0,0,.18-.16,1.15,1.15,0,0,0,.19-.28h0v0a2.42,2.42,0,0,0,.21-.47,2.74,2.74,0,0,0,.08-.5,3.58,3.58,0,0,0,0-.56c0-.07,0-.15,0-.23h0c0-.12-.06-.23-.1-.36a4.1,4.1,0,0,0-.24-.56,2.61,2.61,0,0,0-.3-.4l0,0h0a1.36,1.36,0,0,0-.34-.25,1.46,1.46,0,0,0-.43-.15,2.75,2.75,0,0,0-.8-.06,2.69,2.69,0,0,0-.75.14,4.56,4.56,0,0,0-.75.34,4.64,4.64,0,0,0-.72.52c-.27.23-.52.45-.75.68s-.47.46-.67.7a7.36,7.36,0,0,0-.55.7,8.09,8.09,0,0,0-.46.73c-.15.27-.28.53-.4.79s-.24.53-.36.81-.22.56-.32.84-.2.58-.29.85h0a7.77,7.77,0,0,0-.25,1.06,8.18,8.18,0,0,0-.1,1.1,8.45,8.45,0,0,0,0,1.12c0,.37.1.75.17,1.14a2.81,2.81,0,0,0,.18.62,2.78,2.78,0,0,0,.25.52,2.55,2.55,0,0,0,.32.4,2.41,2.41,0,0,0,.4.33,1.48,1.48,0,0,0,.42.17,1.24,1.24,0,0,0,.47,0,2.31,2.31,0,0,0,.56-.11,3.81,3.81,0,0,0,.63-.28l.43-.3.4-.3.35-.31c.11-.1.22-.19.32-.3h0a2.69,2.69,0,0,1,.24-.24c.09-.08.16-.16.24-.22a2.19,2.19,0,0,1,.22-.2l.23-.19.17-.14.19-.2,0,0,.19-.22c.07-.09.15-.18.22-.29a8.05,8.05,0,0,0,.8-.87c0,.48.11.76.11,1.13l.1.08a3.22,3.22,0,0,0,0,.33,1.52,1.52,0,0,0,0,.23.64.64,0,0,0,0,.09l.07.14s0,0,0,.07A4.5,4.5,0,0,0,261,94a2.69,2.69,0,0,0,.26.57,2.51,2.51,0,0,0,.32.46,2.05,2.05,0,0,0,.4.38,2.34,2.34,0,0,0,.43.26,2,2,0,0,0,.47.15,2.41,2.41,0,0,0,.54,0,2.61,2.61,0,0,0,.6-.08,3.73,3.73,0,0,0,.66-.17,4.55,4.55,0,0,0,.53-.2,3.3,3.3,0,0,0,.42-.23A3.53,3.53,0,0,0,266,95l.31-.22.25-.19c.31-.23.63-.46.92-.69a6.65,6.65,0,0,0,.78-.71l.47-.52.48-.57.48-.58.18-.25Z"/><path class="cls-1" d="M200.52,83.72s-.52,1.53-1,2.76a12.62,12.62,0,0,1-3.65,5.66,8.7,8.7,0,0,1-.8.65,4.07,4.07,0,0,1-1,.55h0l-.2.09-.27.13-.34.18a.26.26,0,0,1-.35-.11.08.08,0,0,1,0,0l-.1-.38a3.55,3.55,0,0,1-.08-.47c0-.16,0-.32-.05-.47s0-.25,0-.35a1.49,1.49,0,0,0,0-.22v0l0-.09V88.78a1.33,1.33,0,0,0-.18-.74v0a1,1,0,0,0-.22-.23,1.9,1.9,0,0,0-.35-.18,1.6,1.6,0,0,0-.41-.09,1.2,1.2,0,0,0-.38,0,1.23,1.23,0,0,0-.37.12,1.88,1.88,0,0,0-.36.24l-.16.15-.18.16a1.19,1.19,0,0,1-.18.15l-.17.14s-.08.08-.14.12l-.16.2h0l-.27.31h0l-.1.09c-.19.2-.4.4-.58.6a5.76,5.76,0,0,0-.48.56c-.17.22-.31.38-.44.53l-.41.42-.06.06,0,0-.48.48-.49.49-.41.41a.27.27,0,0,1-.45-.15L185,92.1a5,5,0,0,1-.06-.57,5.86,5.86,0,0,1,0-.59c0-.2.05-.41.08-.61a5.27,5.27,0,0,1,.14-.64l.18-.62c.07-.22.13-.42.2-.6s.14-.38.22-.58.16-.37.24-.56.18-.37.27-.54.18-.33.29-.5.2-.32.31-.48.22-.3.34-.45a5,5,0,0,1,.34-.4,3.27,3.27,0,0,1,.33-.32,2.7,2.7,0,0,1,.36-.26,2,2,0,0,1,.36-.17l.4-.13a.25.25,0,0,1,.32.17.19.19,0,0,1,0,.08v.59l0,.16,0,.12a.3.3,0,0,0,0,.1s0,0,0,.06l0,.13a.13.13,0,0,1,0,.06.58.58,0,0,0,0,.21.19.19,0,0,0,.05.09.48.48,0,0,0,.16.07,1.34,1.34,0,0,0,.33,0h.09a1.22,1.22,0,0,0,.27,0,.47.47,0,0,0,.21-.06.9.9,0,0,0,.19-.16,1.5,1.5,0,0,0,.18-.28h0v0a2.46,2.46,0,0,0,.2-.47,2,2,0,0,0,.09-.49,2.67,2.67,0,0,0,0-.56,2.23,2.23,0,0,0,0-.23h0c0-.12-.06-.23-.1-.35a3.76,3.76,0,0,0-.25-.57,2.09,2.09,0,0,0-.3-.4h0v0a1.24,1.24,0,0,0-.35-.25,1.46,1.46,0,0,0-.43-.15,3,3,0,0,0-.79-.06,3.28,3.28,0,0,0-.76.14,3.78,3.78,0,0,0-.74.34,5.41,5.41,0,0,0-.72.52c-.27.23-.52.46-.76.68s-.46.47-.66.69-.38.47-.56.71a8.09,8.09,0,0,0-.46.73c-.14.26-.28.52-.4.79s-.24.53-.35.81-.22.56-.32.84-.2.58-.29.85h0a6.82,6.82,0,0,0-.26,1.06,8,8,0,0,0-.1,1.1,10.57,10.57,0,0,0,0,1.12q.06.56.18,1.14A3.27,3.27,0,0,0,183,94a2.81,2.81,0,0,0,.26.52,2.5,2.5,0,0,0,.72.73,1.65,1.65,0,0,0,.41.18,1.5,1.5,0,0,0,.47,0,2.48,2.48,0,0,0,.57-.11,3.73,3.73,0,0,0,.62-.28l.43-.3.4-.3.35-.3c.11-.1.23-.2.33-.31h0l.25-.24a2.28,2.28,0,0,1,.23-.22l.23-.2.22-.18.17-.15.2-.2v0c.06-.07.13-.14.19-.22s.15-.18.22-.28a8.19,8.19,0,0,0,.8-.88c0,.48.12.75.12,1.13l.09.09c0,.12,0,.23,0,.32s0,.17,0,.23a.2.2,0,0,0,0,.09l.07.14,0,.07a4.21,4.21,0,0,0,.18.68,3.3,3.3,0,0,0,.26.57,2.51,2.51,0,0,0,.32.46,2.4,2.4,0,0,0,.4.38,2.43,2.43,0,0,0,.44.26,1.84,1.84,0,0,0,.47.15,2.37,2.37,0,0,0,.54,0,3.25,3.25,0,0,0,.59-.07,5,5,0,0,0,.67-.18,5.36,5.36,0,0,0,.53-.2l.42-.23a3.33,3.33,0,0,0,.34-.24l.31-.22.26-.19c.31-.23.62-.45.92-.69a6.61,6.61,0,0,0,.77-.71c.17-.17.33-.35.48-.52l.47-.57c.16-.19.33-.39.48-.59s.32-.4.46-.59c.23-.37.41-.85.62-1.21s.23-.75.35-1Z"/><path class="cls-1" d="M268.37,89.32a1.27,1.27,0,0,1,.73-.47.93.93,0,0,1,.77.21,1.88,1.88,0,0,1,.54.7.76.76,0,0,1-.13.82l-.6.86c-1.69,2.43-3.35,1-1.82-1.33Z"/><path class="cls-1" d="M235.07,82.38h.09a2.68,2.68,0,0,0,.28-.35,3.89,3.89,0,0,1,.28-.35q2.43-3.27,4.72-6.57c3.84-5.53,6-8,8.06-14.5a24.37,24.37,0,0,0,.82-3.32,9.54,9.54,0,0,0,.16-3.1,4.23,4.23,0,0,0-.21-.9L249,52.4c-.1-.31-.38-.37-.85-.16a2.55,2.55,0,0,0-.34.19,5.34,5.34,0,0,0-1.19,1.08,10.72,10.72,0,0,0-1.06,1.07,33,33,0,0,0-2.2,3.65c-3.24,6.25-3.74,8.45-5.83,15.15-.61,1.94-.92,3.44-1.54,5.36-.17.55-.32,1.67-.45,2.16a10.43,10.43,0,0,1-.45,1.48Zm-3.39,4.86c.1-.1,0-.35.1-.46a.45.45,0,0,0,.14-.33c1.56-6.25,2.94-11.52,4.71-16.93a73.19,73.19,0,0,1,3.83-10.06c.83-1.67,1.74-3.34,2.77-5,.4-.64.83-1.21,1.25-1.76A9.08,9.08,0,0,1,246,51.17a7.68,7.68,0,0,1,1-.73,3,3,0,0,1,2.16-.37,2.41,2.41,0,0,1,1.62,1.2,5.37,5.37,0,0,1,.71,2.73,22,22,0,0,1-.24,3.91c-1.34,8.24-6.25,13.89-10.83,20.52-1,1.49-2.11,2.95-3.21,4.39s-2.14,2.82-3.21,4.27Z"/></g></g></svg>